G04 #@! TF.GenerationSoftware,KiCad,Pcbnew,6.0.11-2627ca5db0~126~ubuntu20.04.1*
G04 #@! TF.CreationDate,2023-10-14T11:39:08+02:00*
G04 #@! TF.ProjectId,driverboardAnnax37623,64726976-6572-4626-9f61-7264416e6e61,rev?*
G04 #@! TF.SameCoordinates,Original*
G04 #@! TF.FileFunction,Legend,Top*
G04 #@! TF.FilePolarity,Positive*
%FSLAX46Y46*%
G04 Gerber Fmt 4.6, Leading zero omitted, Abs format (unit mm)*
G04 Created by KiCad (PCBNEW 6.0.11-2627ca5db0~126~ubuntu20.04.1) date 2023-10-14 11:39:08*
%MOMM*%
%LPD*%
G01*
G04 APERTURE LIST*
G04 Aperture macros list*
%AMRoundRect*
0 Rectangle with rounded corners*
0 $1 Rounding radius*
0 $2 $3 $4 $5 $6 $7 $8 $9 X,Y pos of 4 corners*
0 Add a 4 corners polygon primitive as box body*
4,1,4,$2,$3,$4,$5,$6,$7,$8,$9,$2,$3,0*
0 Add four circle primitives for the rounded corners*
1,1,$1+$1,$2,$3*
1,1,$1+$1,$4,$5*
1,1,$1+$1,$6,$7*
1,1,$1+$1,$8,$9*
0 Add four rect primitives between the rounded corners*
20,1,$1+$1,$2,$3,$4,$5,0*
20,1,$1+$1,$4,$5,$6,$7,0*
20,1,$1+$1,$6,$7,$8,$9,0*
20,1,$1+$1,$8,$9,$2,$3,0*%
G04 Aperture macros list end*
%ADD10C,0.300000*%
%ADD11C,0.150000*%
%ADD12C,0.120000*%
%ADD13C,1.000000*%
%ADD14C,0.800000*%
%ADD15R,2.400000X1.600000*%
%ADD16O,2.400000X1.600000*%
%ADD17R,2.000000X2.000000*%
%ADD18C,2.000000*%
%ADD19R,1.050000X1.500000*%
%ADD20O,1.050000X1.500000*%
%ADD21RoundRect,0.575000X-0.575000X-0.575000X0.575000X-0.575000X0.575000X0.575000X-0.575000X0.575000X0*%
%ADD22C,2.300000*%
%ADD23C,1.600000*%
%ADD24O,1.600000X1.600000*%
%ADD25R,1.500000X1.050000*%
%ADD26O,1.500000X1.050000*%
%ADD27C,3.200000*%
%ADD28R,1.800000X1.800000*%
%ADD29O,1.800000X1.800000*%
%ADD30RoundRect,0.575000X-0.575000X0.575000X-0.575000X-0.575000X0.575000X-0.575000X0.575000X0.575000X0*%
%ADD31RoundRect,0.100000X-0.100000X0.637500X-0.100000X-0.637500X0.100000X-0.637500X0.100000X0.637500X0*%
%ADD32R,1.905000X2.000000*%
%ADD33O,1.905000X2.000000*%
%ADD34R,1.600000X1.600000*%
%ADD35RoundRect,0.250000X0.600000X0.600000X-0.600000X0.600000X-0.600000X-0.600000X0.600000X-0.600000X0*%
%ADD36C,1.700000*%
%ADD37R,3.000000X3.000000*%
%ADD38C,3.000000*%
%ADD39R,1.700000X1.700000*%
%ADD40O,1.700000X1.700000*%
%ADD41R,1.524000X1.524000*%
%ADD42C,1.524000*%
G04 APERTURE END LIST*
D10*
X26845714Y-44235714D02*
X29131428Y-44235714D01*
X27988571Y-43092857D02*
X27988571Y-45378571D01*
X41988571Y-44235714D02*
X44274285Y-44235714D01*
D11*
X85613095Y-191012380D02*
X85613095Y-191821904D01*
X85660714Y-191917142D01*
X85708333Y-191964761D01*
X85803571Y-192012380D01*
X85994047Y-192012380D01*
X86089285Y-191964761D01*
X86136904Y-191917142D01*
X86184523Y-191821904D01*
X86184523Y-191012380D01*
X86565476Y-191012380D02*
X87232142Y-191012380D01*
X86803571Y-192012380D01*
X75287142Y-62396666D02*
X75334761Y-62444285D01*
X75382380Y-62587142D01*
X75382380Y-62682380D01*
X75334761Y-62825238D01*
X75239523Y-62920476D01*
X75144285Y-62968095D01*
X74953809Y-63015714D01*
X74810952Y-63015714D01*
X74620476Y-62968095D01*
X74525238Y-62920476D01*
X74430000Y-62825238D01*
X74382380Y-62682380D01*
X74382380Y-62587142D01*
X74430000Y-62444285D01*
X74477619Y-62396666D01*
X74477619Y-62015714D02*
X74430000Y-61968095D01*
X74382380Y-61872857D01*
X74382380Y-61634761D01*
X74430000Y-61539523D01*
X74477619Y-61491904D01*
X74572857Y-61444285D01*
X74668095Y-61444285D01*
X74810952Y-61491904D01*
X75382380Y-62063333D01*
X75382380Y-61444285D01*
X45624761Y-169207619D02*
X45529523Y-169160000D01*
X45434285Y-169064761D01*
X45291428Y-168921904D01*
X45196190Y-168874285D01*
X45100952Y-168874285D01*
X45148571Y-169112380D02*
X45053333Y-169064761D01*
X44958095Y-168969523D01*
X44910476Y-168779047D01*
X44910476Y-168445714D01*
X44958095Y-168255238D01*
X45053333Y-168160000D01*
X45148571Y-168112380D01*
X45339047Y-168112380D01*
X45434285Y-168160000D01*
X45529523Y-168255238D01*
X45577142Y-168445714D01*
X45577142Y-168779047D01*
X45529523Y-168969523D01*
X45434285Y-169064761D01*
X45339047Y-169112380D01*
X45148571Y-169112380D01*
X45958095Y-168207619D02*
X46005714Y-168160000D01*
X46100952Y-168112380D01*
X46339047Y-168112380D01*
X46434285Y-168160000D01*
X46481904Y-168207619D01*
X46529523Y-168302857D01*
X46529523Y-168398095D01*
X46481904Y-168540952D01*
X45910476Y-169112380D01*
X46529523Y-169112380D01*
X55546666Y-50538571D02*
X55213333Y-50538571D01*
X55213333Y-51062380D02*
X55213333Y-50062380D01*
X55689523Y-50062380D01*
X56022857Y-50157619D02*
X56070476Y-50110000D01*
X56165714Y-50062380D01*
X56403809Y-50062380D01*
X56499047Y-50110000D01*
X56546666Y-50157619D01*
X56594285Y-50252857D01*
X56594285Y-50348095D01*
X56546666Y-50490952D01*
X55975238Y-51062380D01*
X56594285Y-51062380D01*
X100957142Y-165457142D02*
X100909523Y-165504761D01*
X100766666Y-165552380D01*
X100671428Y-165552380D01*
X100528571Y-165504761D01*
X100433333Y-165409523D01*
X100385714Y-165314285D01*
X100338095Y-165123809D01*
X100338095Y-164980952D01*
X100385714Y-164790476D01*
X100433333Y-164695238D01*
X100528571Y-164600000D01*
X100671428Y-164552380D01*
X100766666Y-164552380D01*
X100909523Y-164600000D01*
X100957142Y-164647619D01*
X101909523Y-165552380D02*
X101338095Y-165552380D01*
X101623809Y-165552380D02*
X101623809Y-164552380D01*
X101528571Y-164695238D01*
X101433333Y-164790476D01*
X101338095Y-164838095D01*
X102290476Y-164647619D02*
X102338095Y-164600000D01*
X102433333Y-164552380D01*
X102671428Y-164552380D01*
X102766666Y-164600000D01*
X102814285Y-164647619D01*
X102861904Y-164742857D01*
X102861904Y-164838095D01*
X102814285Y-164980952D01*
X102242857Y-165552380D01*
X102861904Y-165552380D01*
X85598095Y-164342380D02*
X85598095Y-165151904D01*
X85645714Y-165247142D01*
X85693333Y-165294761D01*
X85788571Y-165342380D01*
X85979047Y-165342380D01*
X86074285Y-165294761D01*
X86121904Y-165247142D01*
X86169523Y-165151904D01*
X86169523Y-164342380D01*
X86788571Y-164770952D02*
X86693333Y-164723333D01*
X86645714Y-164675714D01*
X86598095Y-164580476D01*
X86598095Y-164532857D01*
X86645714Y-164437619D01*
X86693333Y-164390000D01*
X86788571Y-164342380D01*
X86979047Y-164342380D01*
X87074285Y-164390000D01*
X87121904Y-164437619D01*
X87169523Y-164532857D01*
X87169523Y-164580476D01*
X87121904Y-164675714D01*
X87074285Y-164723333D01*
X86979047Y-164770952D01*
X86788571Y-164770952D01*
X86693333Y-164818571D01*
X86645714Y-164866190D01*
X86598095Y-164961428D01*
X86598095Y-165151904D01*
X86645714Y-165247142D01*
X86693333Y-165294761D01*
X86788571Y-165342380D01*
X86979047Y-165342380D01*
X87074285Y-165294761D01*
X87121904Y-165247142D01*
X87169523Y-165151904D01*
X87169523Y-164961428D01*
X87121904Y-164866190D01*
X87074285Y-164818571D01*
X86979047Y-164770952D01*
X86717142Y-128436666D02*
X86764761Y-128484285D01*
X86812380Y-128627142D01*
X86812380Y-128722380D01*
X86764761Y-128865238D01*
X86669523Y-128960476D01*
X86574285Y-129008095D01*
X86383809Y-129055714D01*
X86240952Y-129055714D01*
X86050476Y-129008095D01*
X85955238Y-128960476D01*
X85860000Y-128865238D01*
X85812380Y-128722380D01*
X85812380Y-128627142D01*
X85860000Y-128484285D01*
X85907619Y-128436666D01*
X85812380Y-127579523D02*
X85812380Y-127770000D01*
X85860000Y-127865238D01*
X85907619Y-127912857D01*
X86050476Y-128008095D01*
X86240952Y-128055714D01*
X86621904Y-128055714D01*
X86717142Y-128008095D01*
X86764761Y-127960476D01*
X86812380Y-127865238D01*
X86812380Y-127674761D01*
X86764761Y-127579523D01*
X86717142Y-127531904D01*
X86621904Y-127484285D01*
X86383809Y-127484285D01*
X86288571Y-127531904D01*
X86240952Y-127579523D01*
X86193333Y-127674761D01*
X86193333Y-127865238D01*
X86240952Y-127960476D01*
X86288571Y-128008095D01*
X86383809Y-128055714D01*
X76652380Y-124626666D02*
X76176190Y-124960000D01*
X76652380Y-125198095D02*
X75652380Y-125198095D01*
X75652380Y-124817142D01*
X75700000Y-124721904D01*
X75747619Y-124674285D01*
X75842857Y-124626666D01*
X75985714Y-124626666D01*
X76080952Y-124674285D01*
X76128571Y-124721904D01*
X76176190Y-124817142D01*
X76176190Y-125198095D01*
X75652380Y-123721904D02*
X75652380Y-124198095D01*
X76128571Y-124245714D01*
X76080952Y-124198095D01*
X76033333Y-124102857D01*
X76033333Y-123864761D01*
X76080952Y-123769523D01*
X76128571Y-123721904D01*
X76223809Y-123674285D01*
X76461904Y-123674285D01*
X76557142Y-123721904D01*
X76604761Y-123769523D01*
X76652380Y-123864761D01*
X76652380Y-124102857D01*
X76604761Y-124198095D01*
X76557142Y-124245714D01*
X57848571Y-133897619D02*
X57753333Y-133850000D01*
X57658095Y-133754761D01*
X57515238Y-133611904D01*
X57420000Y-133564285D01*
X57324761Y-133564285D01*
X57372380Y-133802380D02*
X57277142Y-133754761D01*
X57181904Y-133659523D01*
X57134285Y-133469047D01*
X57134285Y-133135714D01*
X57181904Y-132945238D01*
X57277142Y-132850000D01*
X57372380Y-132802380D01*
X57562857Y-132802380D01*
X57658095Y-132850000D01*
X57753333Y-132945238D01*
X57800952Y-133135714D01*
X57800952Y-133469047D01*
X57753333Y-133659523D01*
X57658095Y-133754761D01*
X57562857Y-133802380D01*
X57372380Y-133802380D01*
X58753333Y-133802380D02*
X58181904Y-133802380D01*
X58467619Y-133802380D02*
X58467619Y-132802380D01*
X58372380Y-132945238D01*
X58277142Y-133040476D01*
X58181904Y-133088095D01*
X59372380Y-132802380D02*
X59467619Y-132802380D01*
X59562857Y-132850000D01*
X59610476Y-132897619D01*
X59658095Y-132992857D01*
X59705714Y-133183333D01*
X59705714Y-133421428D01*
X59658095Y-133611904D01*
X59610476Y-133707142D01*
X59562857Y-133754761D01*
X59467619Y-133802380D01*
X59372380Y-133802380D01*
X59277142Y-133754761D01*
X59229523Y-133707142D01*
X59181904Y-133611904D01*
X59134285Y-133421428D01*
X59134285Y-133183333D01*
X59181904Y-132992857D01*
X59229523Y-132897619D01*
X59277142Y-132850000D01*
X59372380Y-132802380D01*
X37452380Y-163996666D02*
X36976190Y-164330000D01*
X37452380Y-164568095D02*
X36452380Y-164568095D01*
X36452380Y-164187142D01*
X36500000Y-164091904D01*
X36547619Y-164044285D01*
X36642857Y-163996666D01*
X36785714Y-163996666D01*
X36880952Y-164044285D01*
X36928571Y-164091904D01*
X36976190Y-164187142D01*
X36976190Y-164568095D01*
X37452380Y-163044285D02*
X37452380Y-163615714D01*
X37452380Y-163330000D02*
X36452380Y-163330000D01*
X36595238Y-163425238D01*
X36690476Y-163520476D01*
X36738095Y-163615714D01*
X75287142Y-45886666D02*
X75334761Y-45934285D01*
X75382380Y-46077142D01*
X75382380Y-46172380D01*
X75334761Y-46315238D01*
X75239523Y-46410476D01*
X75144285Y-46458095D01*
X74953809Y-46505714D01*
X74810952Y-46505714D01*
X74620476Y-46458095D01*
X74525238Y-46410476D01*
X74430000Y-46315238D01*
X74382380Y-46172380D01*
X74382380Y-46077142D01*
X74430000Y-45934285D01*
X74477619Y-45886666D01*
X75382380Y-44934285D02*
X75382380Y-45505714D01*
X75382380Y-45220000D02*
X74382380Y-45220000D01*
X74525238Y-45315238D01*
X74620476Y-45410476D01*
X74668095Y-45505714D01*
X40544761Y-149137619D02*
X40449523Y-149090000D01*
X40354285Y-148994761D01*
X40211428Y-148851904D01*
X40116190Y-148804285D01*
X40020952Y-148804285D01*
X40068571Y-149042380D02*
X39973333Y-148994761D01*
X39878095Y-148899523D01*
X39830476Y-148709047D01*
X39830476Y-148375714D01*
X39878095Y-148185238D01*
X39973333Y-148090000D01*
X40068571Y-148042380D01*
X40259047Y-148042380D01*
X40354285Y-148090000D01*
X40449523Y-148185238D01*
X40497142Y-148375714D01*
X40497142Y-148709047D01*
X40449523Y-148899523D01*
X40354285Y-148994761D01*
X40259047Y-149042380D01*
X40068571Y-149042380D01*
X41401904Y-148042380D02*
X40925714Y-148042380D01*
X40878095Y-148518571D01*
X40925714Y-148470952D01*
X41020952Y-148423333D01*
X41259047Y-148423333D01*
X41354285Y-148470952D01*
X41401904Y-148518571D01*
X41449523Y-148613809D01*
X41449523Y-148851904D01*
X41401904Y-148947142D01*
X41354285Y-148994761D01*
X41259047Y-149042380D01*
X41020952Y-149042380D01*
X40925714Y-148994761D01*
X40878095Y-148947142D01*
X32377142Y-128722380D02*
X32043809Y-128246190D01*
X31805714Y-128722380D02*
X31805714Y-127722380D01*
X32186666Y-127722380D01*
X32281904Y-127770000D01*
X32329523Y-127817619D01*
X32377142Y-127912857D01*
X32377142Y-128055714D01*
X32329523Y-128150952D01*
X32281904Y-128198571D01*
X32186666Y-128246190D01*
X31805714Y-128246190D01*
X33329523Y-128722380D02*
X32758095Y-128722380D01*
X33043809Y-128722380D02*
X33043809Y-127722380D01*
X32948571Y-127865238D01*
X32853333Y-127960476D01*
X32758095Y-128008095D01*
X33948571Y-127722380D02*
X34043809Y-127722380D01*
X34139047Y-127770000D01*
X34186666Y-127817619D01*
X34234285Y-127912857D01*
X34281904Y-128103333D01*
X34281904Y-128341428D01*
X34234285Y-128531904D01*
X34186666Y-128627142D01*
X34139047Y-128674761D01*
X34043809Y-128722380D01*
X33948571Y-128722380D01*
X33853333Y-128674761D01*
X33805714Y-128627142D01*
X33758095Y-128531904D01*
X33710476Y-128341428D01*
X33710476Y-128103333D01*
X33758095Y-127912857D01*
X33805714Y-127817619D01*
X33853333Y-127770000D01*
X33948571Y-127722380D01*
X56162380Y-175426666D02*
X55686190Y-175760000D01*
X56162380Y-175998095D02*
X55162380Y-175998095D01*
X55162380Y-175617142D01*
X55210000Y-175521904D01*
X55257619Y-175474285D01*
X55352857Y-175426666D01*
X55495714Y-175426666D01*
X55590952Y-175474285D01*
X55638571Y-175521904D01*
X55686190Y-175617142D01*
X55686190Y-175998095D01*
X55162380Y-175093333D02*
X55162380Y-174474285D01*
X55543333Y-174807619D01*
X55543333Y-174664761D01*
X55590952Y-174569523D01*
X55638571Y-174521904D01*
X55733809Y-174474285D01*
X55971904Y-174474285D01*
X56067142Y-174521904D01*
X56114761Y-174569523D01*
X56162380Y-174664761D01*
X56162380Y-174950476D01*
X56114761Y-175045714D01*
X56067142Y-175093333D01*
X32377142Y-140152380D02*
X32043809Y-139676190D01*
X31805714Y-140152380D02*
X31805714Y-139152380D01*
X32186666Y-139152380D01*
X32281904Y-139200000D01*
X32329523Y-139247619D01*
X32377142Y-139342857D01*
X32377142Y-139485714D01*
X32329523Y-139580952D01*
X32281904Y-139628571D01*
X32186666Y-139676190D01*
X31805714Y-139676190D01*
X33329523Y-140152380D02*
X32758095Y-140152380D01*
X33043809Y-140152380D02*
X33043809Y-139152380D01*
X32948571Y-139295238D01*
X32853333Y-139390476D01*
X32758095Y-139438095D01*
X33710476Y-139247619D02*
X33758095Y-139200000D01*
X33853333Y-139152380D01*
X34091428Y-139152380D01*
X34186666Y-139200000D01*
X34234285Y-139247619D01*
X34281904Y-139342857D01*
X34281904Y-139438095D01*
X34234285Y-139580952D01*
X33662857Y-140152380D01*
X34281904Y-140152380D01*
X72842380Y-124626666D02*
X72366190Y-124960000D01*
X72842380Y-125198095D02*
X71842380Y-125198095D01*
X71842380Y-124817142D01*
X71890000Y-124721904D01*
X71937619Y-124674285D01*
X72032857Y-124626666D01*
X72175714Y-124626666D01*
X72270952Y-124674285D01*
X72318571Y-124721904D01*
X72366190Y-124817142D01*
X72366190Y-125198095D01*
X71842380Y-123769523D02*
X71842380Y-123960000D01*
X71890000Y-124055238D01*
X71937619Y-124102857D01*
X72080476Y-124198095D01*
X72270952Y-124245714D01*
X72651904Y-124245714D01*
X72747142Y-124198095D01*
X72794761Y-124150476D01*
X72842380Y-124055238D01*
X72842380Y-123864761D01*
X72794761Y-123769523D01*
X72747142Y-123721904D01*
X72651904Y-123674285D01*
X72413809Y-123674285D01*
X72318571Y-123721904D01*
X72270952Y-123769523D01*
X72223333Y-123864761D01*
X72223333Y-124055238D01*
X72270952Y-124150476D01*
X72318571Y-124198095D01*
X72413809Y-124245714D01*
X51347619Y-165195238D02*
X51300000Y-165290476D01*
X51204761Y-165385714D01*
X51061904Y-165528571D01*
X51014285Y-165623809D01*
X51014285Y-165719047D01*
X51252380Y-165671428D02*
X51204761Y-165766666D01*
X51109523Y-165861904D01*
X50919047Y-165909523D01*
X50585714Y-165909523D01*
X50395238Y-165861904D01*
X50300000Y-165766666D01*
X50252380Y-165671428D01*
X50252380Y-165480952D01*
X50300000Y-165385714D01*
X50395238Y-165290476D01*
X50585714Y-165242857D01*
X50919047Y-165242857D01*
X51109523Y-165290476D01*
X51204761Y-165385714D01*
X51252380Y-165480952D01*
X51252380Y-165671428D01*
X50252380Y-164909523D02*
X50252380Y-164290476D01*
X50633333Y-164623809D01*
X50633333Y-164480952D01*
X50680952Y-164385714D01*
X50728571Y-164338095D01*
X50823809Y-164290476D01*
X51061904Y-164290476D01*
X51157142Y-164338095D01*
X51204761Y-164385714D01*
X51252380Y-164480952D01*
X51252380Y-164766666D01*
X51204761Y-164861904D01*
X51157142Y-164909523D01*
X43802380Y-156376666D02*
X43326190Y-156710000D01*
X43802380Y-156948095D02*
X42802380Y-156948095D01*
X42802380Y-156567142D01*
X42850000Y-156471904D01*
X42897619Y-156424285D01*
X42992857Y-156376666D01*
X43135714Y-156376666D01*
X43230952Y-156424285D01*
X43278571Y-156471904D01*
X43326190Y-156567142D01*
X43326190Y-156948095D01*
X42897619Y-155995714D02*
X42850000Y-155948095D01*
X42802380Y-155852857D01*
X42802380Y-155614761D01*
X42850000Y-155519523D01*
X42897619Y-155471904D01*
X42992857Y-155424285D01*
X43088095Y-155424285D01*
X43230952Y-155471904D01*
X43802380Y-156043333D01*
X43802380Y-155424285D01*
X40544761Y-133897619D02*
X40449523Y-133850000D01*
X40354285Y-133754761D01*
X40211428Y-133611904D01*
X40116190Y-133564285D01*
X40020952Y-133564285D01*
X40068571Y-133802380D02*
X39973333Y-133754761D01*
X39878095Y-133659523D01*
X39830476Y-133469047D01*
X39830476Y-133135714D01*
X39878095Y-132945238D01*
X39973333Y-132850000D01*
X40068571Y-132802380D01*
X40259047Y-132802380D01*
X40354285Y-132850000D01*
X40449523Y-132945238D01*
X40497142Y-133135714D01*
X40497142Y-133469047D01*
X40449523Y-133659523D01*
X40354285Y-133754761D01*
X40259047Y-133802380D01*
X40068571Y-133802380D01*
X40830476Y-132802380D02*
X41497142Y-132802380D01*
X41068571Y-133802380D01*
X107788095Y-52352380D02*
X108359523Y-52352380D01*
X108073809Y-53352380D02*
X108073809Y-52352380D01*
X108692857Y-53352380D02*
X108692857Y-52352380D01*
X109073809Y-52352380D01*
X109169047Y-52400000D01*
X109216666Y-52447619D01*
X109264285Y-52542857D01*
X109264285Y-52685714D01*
X109216666Y-52780952D01*
X109169047Y-52828571D01*
X109073809Y-52876190D01*
X108692857Y-52876190D01*
X110121428Y-52685714D02*
X110121428Y-53352380D01*
X109883333Y-52304761D02*
X109645238Y-53019047D01*
X110264285Y-53019047D01*
X80462380Y-124626666D02*
X79986190Y-124960000D01*
X80462380Y-125198095D02*
X79462380Y-125198095D01*
X79462380Y-124817142D01*
X79510000Y-124721904D01*
X79557619Y-124674285D01*
X79652857Y-124626666D01*
X79795714Y-124626666D01*
X79890952Y-124674285D01*
X79938571Y-124721904D01*
X79986190Y-124817142D01*
X79986190Y-125198095D01*
X79462380Y-124293333D02*
X79462380Y-123626666D01*
X80462380Y-124055238D01*
X53458571Y-75263333D02*
X53458571Y-75596666D01*
X53982380Y-75596666D02*
X52982380Y-75596666D01*
X52982380Y-75120476D01*
X52982380Y-74834761D02*
X52982380Y-74215714D01*
X53363333Y-74549047D01*
X53363333Y-74406190D01*
X53410952Y-74310952D01*
X53458571Y-74263333D01*
X53553809Y-74215714D01*
X53791904Y-74215714D01*
X53887142Y-74263333D01*
X53934761Y-74310952D01*
X53982380Y-74406190D01*
X53982380Y-74691904D01*
X53934761Y-74787142D01*
X53887142Y-74834761D01*
X97242380Y-129031904D02*
X98051904Y-129031904D01*
X98147142Y-128984285D01*
X98194761Y-128936666D01*
X98242380Y-128841428D01*
X98242380Y-128650952D01*
X98194761Y-128555714D01*
X98147142Y-128508095D01*
X98051904Y-128460476D01*
X97242380Y-128460476D01*
X97337619Y-128031904D02*
X97290000Y-127984285D01*
X97242380Y-127889047D01*
X97242380Y-127650952D01*
X97290000Y-127555714D01*
X97337619Y-127508095D01*
X97432857Y-127460476D01*
X97528095Y-127460476D01*
X97670952Y-127508095D01*
X98242380Y-128079523D01*
X98242380Y-127460476D01*
X57329784Y-141517619D02*
X57234546Y-141470000D01*
X57139308Y-141374761D01*
X56996451Y-141231904D01*
X56901213Y-141184285D01*
X56805975Y-141184285D01*
X56853594Y-141422380D02*
X56758356Y-141374761D01*
X56663118Y-141279523D01*
X56615499Y-141089047D01*
X56615499Y-140755714D01*
X56663118Y-140565238D01*
X56758356Y-140470000D01*
X56853594Y-140422380D01*
X57044070Y-140422380D01*
X57139308Y-140470000D01*
X57234546Y-140565238D01*
X57282165Y-140755714D01*
X57282165Y-141089047D01*
X57234546Y-141279523D01*
X57139308Y-141374761D01*
X57044070Y-141422380D01*
X56853594Y-141422380D01*
X57758356Y-141422380D02*
X57948832Y-141422380D01*
X58044070Y-141374761D01*
X58091689Y-141327142D01*
X58186927Y-141184285D01*
X58234546Y-140993809D01*
X58234546Y-140612857D01*
X58186927Y-140517619D01*
X58139308Y-140470000D01*
X58044070Y-140422380D01*
X57853594Y-140422380D01*
X57758356Y-140470000D01*
X57710737Y-140517619D01*
X57663118Y-140612857D01*
X57663118Y-140850952D01*
X57710737Y-140946190D01*
X57758356Y-140993809D01*
X57853594Y-141041428D01*
X58044070Y-141041428D01*
X58139308Y-140993809D01*
X58186927Y-140946190D01*
X58234546Y-140850952D01*
X32853333Y-143962380D02*
X32520000Y-143486190D01*
X32281904Y-143962380D02*
X32281904Y-142962380D01*
X32662857Y-142962380D01*
X32758095Y-143010000D01*
X32805714Y-143057619D01*
X32853333Y-143152857D01*
X32853333Y-143295714D01*
X32805714Y-143390952D01*
X32758095Y-143438571D01*
X32662857Y-143486190D01*
X32281904Y-143486190D01*
X33424761Y-143390952D02*
X33329523Y-143343333D01*
X33281904Y-143295714D01*
X33234285Y-143200476D01*
X33234285Y-143152857D01*
X33281904Y-143057619D01*
X33329523Y-143010000D01*
X33424761Y-142962380D01*
X33615238Y-142962380D01*
X33710476Y-143010000D01*
X33758095Y-143057619D01*
X33805714Y-143152857D01*
X33805714Y-143200476D01*
X33758095Y-143295714D01*
X33710476Y-143343333D01*
X33615238Y-143390952D01*
X33424761Y-143390952D01*
X33329523Y-143438571D01*
X33281904Y-143486190D01*
X33234285Y-143581428D01*
X33234285Y-143771904D01*
X33281904Y-143867142D01*
X33329523Y-143914761D01*
X33424761Y-143962380D01*
X33615238Y-143962380D01*
X33710476Y-143914761D01*
X33758095Y-143867142D01*
X33805714Y-143771904D01*
X33805714Y-143581428D01*
X33758095Y-143486190D01*
X33710476Y-143438571D01*
X33615238Y-143390952D01*
X107788095Y-39652380D02*
X108359523Y-39652380D01*
X108073809Y-40652380D02*
X108073809Y-39652380D01*
X108692857Y-40652380D02*
X108692857Y-39652380D01*
X109073809Y-39652380D01*
X109169047Y-39700000D01*
X109216666Y-39747619D01*
X109264285Y-39842857D01*
X109264285Y-39985714D01*
X109216666Y-40080952D01*
X109169047Y-40128571D01*
X109073809Y-40176190D01*
X108692857Y-40176190D01*
X110169047Y-39652380D02*
X109692857Y-39652380D01*
X109645238Y-40128571D01*
X109692857Y-40080952D01*
X109788095Y-40033333D01*
X110026190Y-40033333D01*
X110121428Y-40080952D01*
X110169047Y-40128571D01*
X110216666Y-40223809D01*
X110216666Y-40461904D01*
X110169047Y-40557142D01*
X110121428Y-40604761D01*
X110026190Y-40652380D01*
X109788095Y-40652380D01*
X109692857Y-40604761D01*
X109645238Y-40557142D01*
X86868095Y-30742380D02*
X86868095Y-31551904D01*
X86915714Y-31647142D01*
X86963333Y-31694761D01*
X87058571Y-31742380D01*
X87249047Y-31742380D01*
X87344285Y-31694761D01*
X87391904Y-31647142D01*
X87439523Y-31551904D01*
X87439523Y-30742380D01*
X87820476Y-30742380D02*
X88439523Y-30742380D01*
X88106190Y-31123333D01*
X88249047Y-31123333D01*
X88344285Y-31170952D01*
X88391904Y-31218571D01*
X88439523Y-31313809D01*
X88439523Y-31551904D01*
X88391904Y-31647142D01*
X88344285Y-31694761D01*
X88249047Y-31742380D01*
X87963333Y-31742380D01*
X87868095Y-31694761D01*
X87820476Y-31647142D01*
X40544761Y-141517619D02*
X40449523Y-141470000D01*
X40354285Y-141374761D01*
X40211428Y-141231904D01*
X40116190Y-141184285D01*
X40020952Y-141184285D01*
X40068571Y-141422380D02*
X39973333Y-141374761D01*
X39878095Y-141279523D01*
X39830476Y-141089047D01*
X39830476Y-140755714D01*
X39878095Y-140565238D01*
X39973333Y-140470000D01*
X40068571Y-140422380D01*
X40259047Y-140422380D01*
X40354285Y-140470000D01*
X40449523Y-140565238D01*
X40497142Y-140755714D01*
X40497142Y-141089047D01*
X40449523Y-141279523D01*
X40354285Y-141374761D01*
X40259047Y-141422380D01*
X40068571Y-141422380D01*
X41354285Y-140422380D02*
X41163809Y-140422380D01*
X41068571Y-140470000D01*
X41020952Y-140517619D01*
X40925714Y-140660476D01*
X40878095Y-140850952D01*
X40878095Y-141231904D01*
X40925714Y-141327142D01*
X40973333Y-141374761D01*
X41068571Y-141422380D01*
X41259047Y-141422380D01*
X41354285Y-141374761D01*
X41401904Y-141327142D01*
X41449523Y-141231904D01*
X41449523Y-140993809D01*
X41401904Y-140898571D01*
X41354285Y-140850952D01*
X41259047Y-140803333D01*
X41068571Y-140803333D01*
X40973333Y-140850952D01*
X40925714Y-140898571D01*
X40878095Y-140993809D01*
X32853333Y-136342380D02*
X32520000Y-135866190D01*
X32281904Y-136342380D02*
X32281904Y-135342380D01*
X32662857Y-135342380D01*
X32758095Y-135390000D01*
X32805714Y-135437619D01*
X32853333Y-135532857D01*
X32853333Y-135675714D01*
X32805714Y-135770952D01*
X32758095Y-135818571D01*
X32662857Y-135866190D01*
X32281904Y-135866190D01*
X33329523Y-136342380D02*
X33520000Y-136342380D01*
X33615238Y-136294761D01*
X33662857Y-136247142D01*
X33758095Y-136104285D01*
X33805714Y-135913809D01*
X33805714Y-135532857D01*
X33758095Y-135437619D01*
X33710476Y-135390000D01*
X33615238Y-135342380D01*
X33424761Y-135342380D01*
X33329523Y-135390000D01*
X33281904Y-135437619D01*
X33234285Y-135532857D01*
X33234285Y-135770952D01*
X33281904Y-135866190D01*
X33329523Y-135913809D01*
X33424761Y-135961428D01*
X33615238Y-135961428D01*
X33710476Y-135913809D01*
X33758095Y-135866190D01*
X33805714Y-135770952D01*
X100828095Y-188482380D02*
X100828095Y-189291904D01*
X100875714Y-189387142D01*
X100923333Y-189434761D01*
X101018571Y-189482380D01*
X101209047Y-189482380D01*
X101304285Y-189434761D01*
X101351904Y-189387142D01*
X101399523Y-189291904D01*
X101399523Y-188482380D01*
X102351904Y-188482380D02*
X101875714Y-188482380D01*
X101828095Y-188958571D01*
X101875714Y-188910952D01*
X101970952Y-188863333D01*
X102209047Y-188863333D01*
X102304285Y-188910952D01*
X102351904Y-188958571D01*
X102399523Y-189053809D01*
X102399523Y-189291904D01*
X102351904Y-189387142D01*
X102304285Y-189434761D01*
X102209047Y-189482380D01*
X101970952Y-189482380D01*
X101875714Y-189434761D01*
X101828095Y-189387142D01*
X51142619Y-155035238D02*
X51095000Y-155130476D01*
X50999761Y-155225714D01*
X50856904Y-155368571D01*
X50809285Y-155463809D01*
X50809285Y-155559047D01*
X51047380Y-155511428D02*
X50999761Y-155606666D01*
X50904523Y-155701904D01*
X50714047Y-155749523D01*
X50380714Y-155749523D01*
X50190238Y-155701904D01*
X50095000Y-155606666D01*
X50047380Y-155511428D01*
X50047380Y-155320952D01*
X50095000Y-155225714D01*
X50190238Y-155130476D01*
X50380714Y-155082857D01*
X50714047Y-155082857D01*
X50904523Y-155130476D01*
X50999761Y-155225714D01*
X51047380Y-155320952D01*
X51047380Y-155511428D01*
X50380714Y-154225714D02*
X51047380Y-154225714D01*
X49999761Y-154463809D02*
X50714047Y-154701904D01*
X50714047Y-154082857D01*
X60992380Y-162028095D02*
X59992380Y-162028095D01*
X59992380Y-161790000D01*
X60040000Y-161647142D01*
X60135238Y-161551904D01*
X60230476Y-161504285D01*
X60420952Y-161456666D01*
X60563809Y-161456666D01*
X60754285Y-161504285D01*
X60849523Y-161551904D01*
X60944761Y-161647142D01*
X60992380Y-161790000D01*
X60992380Y-162028095D01*
X60992380Y-160504285D02*
X60992380Y-161075714D01*
X60992380Y-160790000D02*
X59992380Y-160790000D01*
X60135238Y-160885238D01*
X60230476Y-160980476D01*
X60278095Y-161075714D01*
X60672380Y-157741904D02*
X59672380Y-157741904D01*
X60672380Y-157170476D02*
X60100952Y-157599047D01*
X59672380Y-157170476D02*
X60243809Y-157741904D01*
X32377142Y-146502380D02*
X32043809Y-146026190D01*
X31805714Y-146502380D02*
X31805714Y-145502380D01*
X32186666Y-145502380D01*
X32281904Y-145550000D01*
X32329523Y-145597619D01*
X32377142Y-145692857D01*
X32377142Y-145835714D01*
X32329523Y-145930952D01*
X32281904Y-145978571D01*
X32186666Y-146026190D01*
X31805714Y-146026190D01*
X33329523Y-146502380D02*
X32758095Y-146502380D01*
X33043809Y-146502380D02*
X33043809Y-145502380D01*
X32948571Y-145645238D01*
X32853333Y-145740476D01*
X32758095Y-145788095D01*
X34281904Y-146502380D02*
X33710476Y-146502380D01*
X33996190Y-146502380D02*
X33996190Y-145502380D01*
X33900952Y-145645238D01*
X33805714Y-145740476D01*
X33710476Y-145788095D01*
X66976666Y-190972380D02*
X66976666Y-191686666D01*
X66929047Y-191829523D01*
X66833809Y-191924761D01*
X66690952Y-191972380D01*
X66595714Y-191972380D01*
X67357619Y-190972380D02*
X67976666Y-190972380D01*
X67643333Y-191353333D01*
X67786190Y-191353333D01*
X67881428Y-191400952D01*
X67929047Y-191448571D01*
X67976666Y-191543809D01*
X67976666Y-191781904D01*
X67929047Y-191877142D01*
X67881428Y-191924761D01*
X67786190Y-191972380D01*
X67500476Y-191972380D01*
X67405238Y-191924761D01*
X67357619Y-191877142D01*
X86868095Y-47252380D02*
X86868095Y-48061904D01*
X86915714Y-48157142D01*
X86963333Y-48204761D01*
X87058571Y-48252380D01*
X87249047Y-48252380D01*
X87344285Y-48204761D01*
X87391904Y-48157142D01*
X87439523Y-48061904D01*
X87439523Y-47252380D01*
X88344285Y-47585714D02*
X88344285Y-48252380D01*
X88106190Y-47204761D02*
X87868095Y-47919047D01*
X88487142Y-47919047D01*
X55546666Y-34028571D02*
X55213333Y-34028571D01*
X55213333Y-34552380D02*
X55213333Y-33552380D01*
X55689523Y-33552380D01*
X56594285Y-34552380D02*
X56022857Y-34552380D01*
X56308571Y-34552380D02*
X56308571Y-33552380D01*
X56213333Y-33695238D01*
X56118095Y-33790476D01*
X56022857Y-33838095D01*
X35226666Y-40092380D02*
X35226666Y-40806666D01*
X35179047Y-40949523D01*
X35083809Y-41044761D01*
X34940952Y-41092380D01*
X34845714Y-41092380D01*
X36226666Y-41092380D02*
X35655238Y-41092380D01*
X35940952Y-41092380D02*
X35940952Y-40092380D01*
X35845714Y-40235238D01*
X35750476Y-40330476D01*
X35655238Y-40378095D01*
X100687142Y-45886666D02*
X100734761Y-45934285D01*
X100782380Y-46077142D01*
X100782380Y-46172380D01*
X100734761Y-46315238D01*
X100639523Y-46410476D01*
X100544285Y-46458095D01*
X100353809Y-46505714D01*
X100210952Y-46505714D01*
X100020476Y-46458095D01*
X99925238Y-46410476D01*
X99830000Y-46315238D01*
X99782380Y-46172380D01*
X99782380Y-46077142D01*
X99830000Y-45934285D01*
X99877619Y-45886666D01*
X99782380Y-45553333D02*
X99782380Y-44886666D01*
X100782380Y-45315238D01*
X110156666Y-139152380D02*
X110156666Y-139866666D01*
X110109047Y-140009523D01*
X110013809Y-140104761D01*
X109870952Y-140152380D01*
X109775714Y-140152380D01*
X110585238Y-139247619D02*
X110632857Y-139200000D01*
X110728095Y-139152380D01*
X110966190Y-139152380D01*
X111061428Y-139200000D01*
X111109047Y-139247619D01*
X111156666Y-139342857D01*
X111156666Y-139438095D01*
X111109047Y-139580952D01*
X110537619Y-140152380D01*
X111156666Y-140152380D01*
X100687142Y-62396666D02*
X100734761Y-62444285D01*
X100782380Y-62587142D01*
X100782380Y-62682380D01*
X100734761Y-62825238D01*
X100639523Y-62920476D01*
X100544285Y-62968095D01*
X100353809Y-63015714D01*
X100210952Y-63015714D01*
X100020476Y-62968095D01*
X99925238Y-62920476D01*
X99830000Y-62825238D01*
X99782380Y-62682380D01*
X99782380Y-62587142D01*
X99830000Y-62444285D01*
X99877619Y-62396666D01*
X100210952Y-61825238D02*
X100163333Y-61920476D01*
X100115714Y-61968095D01*
X100020476Y-62015714D01*
X99972857Y-62015714D01*
X99877619Y-61968095D01*
X99830000Y-61920476D01*
X99782380Y-61825238D01*
X99782380Y-61634761D01*
X99830000Y-61539523D01*
X99877619Y-61491904D01*
X99972857Y-61444285D01*
X100020476Y-61444285D01*
X100115714Y-61491904D01*
X100163333Y-61539523D01*
X100210952Y-61634761D01*
X100210952Y-61825238D01*
X100258571Y-61920476D01*
X100306190Y-61968095D01*
X100401428Y-62015714D01*
X100591904Y-62015714D01*
X100687142Y-61968095D01*
X100734761Y-61920476D01*
X100782380Y-61825238D01*
X100782380Y-61634761D01*
X100734761Y-61539523D01*
X100687142Y-61491904D01*
X100591904Y-61444285D01*
X100401428Y-61444285D01*
X100306190Y-61491904D01*
X100258571Y-61539523D01*
X100210952Y-61634761D01*
X85447142Y-62396666D02*
X85494761Y-62444285D01*
X85542380Y-62587142D01*
X85542380Y-62682380D01*
X85494761Y-62825238D01*
X85399523Y-62920476D01*
X85304285Y-62968095D01*
X85113809Y-63015714D01*
X84970952Y-63015714D01*
X84780476Y-62968095D01*
X84685238Y-62920476D01*
X84590000Y-62825238D01*
X84542380Y-62682380D01*
X84542380Y-62587142D01*
X84590000Y-62444285D01*
X84637619Y-62396666D01*
X84542380Y-62063333D02*
X84542380Y-61444285D01*
X84923333Y-61777619D01*
X84923333Y-61634761D01*
X84970952Y-61539523D01*
X85018571Y-61491904D01*
X85113809Y-61444285D01*
X85351904Y-61444285D01*
X85447142Y-61491904D01*
X85494761Y-61539523D01*
X85542380Y-61634761D01*
X85542380Y-61920476D01*
X85494761Y-62015714D01*
X85447142Y-62063333D01*
X47442380Y-175426666D02*
X46966190Y-175760000D01*
X47442380Y-175998095D02*
X46442380Y-175998095D01*
X46442380Y-175617142D01*
X46490000Y-175521904D01*
X46537619Y-175474285D01*
X46632857Y-175426666D01*
X46775714Y-175426666D01*
X46870952Y-175474285D01*
X46918571Y-175521904D01*
X46966190Y-175617142D01*
X46966190Y-175998095D01*
X46775714Y-174569523D02*
X47442380Y-174569523D01*
X46394761Y-174807619D02*
X47109047Y-175045714D01*
X47109047Y-174426666D01*
X60047380Y-79073333D02*
X60761666Y-79073333D01*
X60904523Y-79120952D01*
X60999761Y-79216190D01*
X61047380Y-79359047D01*
X61047380Y-79454285D01*
X60380714Y-78168571D02*
X61047380Y-78168571D01*
X59999761Y-78406666D02*
X60714047Y-78644761D01*
X60714047Y-78025714D01*
X32377142Y-132532380D02*
X32043809Y-132056190D01*
X31805714Y-132532380D02*
X31805714Y-131532380D01*
X32186666Y-131532380D01*
X32281904Y-131580000D01*
X32329523Y-131627619D01*
X32377142Y-131722857D01*
X32377142Y-131865714D01*
X32329523Y-131960952D01*
X32281904Y-132008571D01*
X32186666Y-132056190D01*
X31805714Y-132056190D01*
X33329523Y-132532380D02*
X32758095Y-132532380D01*
X33043809Y-132532380D02*
X33043809Y-131532380D01*
X32948571Y-131675238D01*
X32853333Y-131770476D01*
X32758095Y-131818095D01*
X33662857Y-131532380D02*
X34281904Y-131532380D01*
X33948571Y-131913333D01*
X34091428Y-131913333D01*
X34186666Y-131960952D01*
X34234285Y-132008571D01*
X34281904Y-132103809D01*
X34281904Y-132341904D01*
X34234285Y-132437142D01*
X34186666Y-132484761D01*
X34091428Y-132532380D01*
X33805714Y-132532380D01*
X33710476Y-132484761D01*
X33662857Y-132437142D01*
X72762380Y-103631904D02*
X73571904Y-103631904D01*
X73667142Y-103584285D01*
X73714761Y-103536666D01*
X73762380Y-103441428D01*
X73762380Y-103250952D01*
X73714761Y-103155714D01*
X73667142Y-103108095D01*
X73571904Y-103060476D01*
X72762380Y-103060476D01*
X73762380Y-102060476D02*
X73762380Y-102631904D01*
X73762380Y-102346190D02*
X72762380Y-102346190D01*
X72905238Y-102441428D01*
X73000476Y-102536666D01*
X73048095Y-102631904D01*
X102448571Y-112751904D02*
X102448571Y-112418571D01*
X102972380Y-112275714D02*
X102972380Y-112751904D01*
X101972380Y-112751904D01*
X101972380Y-112275714D01*
X102305714Y-111847142D02*
X102972380Y-111847142D01*
X102400952Y-111847142D02*
X102353333Y-111799523D01*
X102305714Y-111704285D01*
X102305714Y-111561428D01*
X102353333Y-111466190D01*
X102448571Y-111418571D01*
X102972380Y-111418571D01*
X102972380Y-110513809D02*
X102448571Y-110513809D01*
X102353333Y-110561428D01*
X102305714Y-110656666D01*
X102305714Y-110847142D01*
X102353333Y-110942380D01*
X102924761Y-110513809D02*
X102972380Y-110609047D01*
X102972380Y-110847142D01*
X102924761Y-110942380D01*
X102829523Y-110990000D01*
X102734285Y-110990000D01*
X102639047Y-110942380D01*
X102591428Y-110847142D01*
X102591428Y-110609047D01*
X102543809Y-110513809D01*
X102972380Y-110037619D02*
X101972380Y-110037619D01*
X102353333Y-110037619D02*
X102305714Y-109942380D01*
X102305714Y-109751904D01*
X102353333Y-109656666D01*
X102400952Y-109609047D01*
X102496190Y-109561428D01*
X102781904Y-109561428D01*
X102877142Y-109609047D01*
X102924761Y-109656666D01*
X102972380Y-109751904D01*
X102972380Y-109942380D01*
X102924761Y-110037619D01*
X102972380Y-108990000D02*
X102924761Y-109085238D01*
X102829523Y-109132857D01*
X101972380Y-109132857D01*
X102924761Y-108228095D02*
X102972380Y-108323333D01*
X102972380Y-108513809D01*
X102924761Y-108609047D01*
X102829523Y-108656666D01*
X102448571Y-108656666D01*
X102353333Y-108609047D01*
X102305714Y-108513809D01*
X102305714Y-108323333D01*
X102353333Y-108228095D01*
X102448571Y-108180476D01*
X102543809Y-108180476D01*
X102639047Y-108656666D01*
X105782380Y-104131904D02*
X106591904Y-104131904D01*
X106687142Y-104084285D01*
X106734761Y-104036666D01*
X106782380Y-103941428D01*
X106782380Y-103750952D01*
X106734761Y-103655714D01*
X106687142Y-103608095D01*
X106591904Y-103560476D01*
X105782380Y-103560476D01*
X106734761Y-103131904D02*
X106782380Y-102989047D01*
X106782380Y-102750952D01*
X106734761Y-102655714D01*
X106687142Y-102608095D01*
X106591904Y-102560476D01*
X106496666Y-102560476D01*
X106401428Y-102608095D01*
X106353809Y-102655714D01*
X106306190Y-102750952D01*
X106258571Y-102941428D01*
X106210952Y-103036666D01*
X106163333Y-103084285D01*
X106068095Y-103131904D01*
X105972857Y-103131904D01*
X105877619Y-103084285D01*
X105830000Y-103036666D01*
X105782380Y-102941428D01*
X105782380Y-102703333D01*
X105830000Y-102560476D01*
X106258571Y-101798571D02*
X106306190Y-101655714D01*
X106353809Y-101608095D01*
X106449047Y-101560476D01*
X106591904Y-101560476D01*
X106687142Y-101608095D01*
X106734761Y-101655714D01*
X106782380Y-101750952D01*
X106782380Y-102131904D01*
X105782380Y-102131904D01*
X105782380Y-101798571D01*
X105830000Y-101703333D01*
X105877619Y-101655714D01*
X105972857Y-101608095D01*
X106068095Y-101608095D01*
X106163333Y-101655714D01*
X106210952Y-101703333D01*
X106258571Y-101798571D01*
X106258571Y-102131904D01*
X102448571Y-96369047D02*
X102496190Y-96226190D01*
X102543809Y-96178571D01*
X102639047Y-96130952D01*
X102781904Y-96130952D01*
X102877142Y-96178571D01*
X102924761Y-96226190D01*
X102972380Y-96321428D01*
X102972380Y-96702380D01*
X101972380Y-96702380D01*
X101972380Y-96369047D01*
X102020000Y-96273809D01*
X102067619Y-96226190D01*
X102162857Y-96178571D01*
X102258095Y-96178571D01*
X102353333Y-96226190D01*
X102400952Y-96273809D01*
X102448571Y-96369047D01*
X102448571Y-96702380D01*
X102972380Y-95559523D02*
X102924761Y-95654761D01*
X102877142Y-95702380D01*
X102781904Y-95750000D01*
X102496190Y-95750000D01*
X102400952Y-95702380D01*
X102353333Y-95654761D01*
X102305714Y-95559523D01*
X102305714Y-95416666D01*
X102353333Y-95321428D01*
X102400952Y-95273809D01*
X102496190Y-95226190D01*
X102781904Y-95226190D01*
X102877142Y-95273809D01*
X102924761Y-95321428D01*
X102972380Y-95416666D01*
X102972380Y-95559523D01*
X102972380Y-94654761D02*
X102924761Y-94750000D01*
X102877142Y-94797619D01*
X102781904Y-94845238D01*
X102496190Y-94845238D01*
X102400952Y-94797619D01*
X102353333Y-94750000D01*
X102305714Y-94654761D01*
X102305714Y-94511904D01*
X102353333Y-94416666D01*
X102400952Y-94369047D01*
X102496190Y-94321428D01*
X102781904Y-94321428D01*
X102877142Y-94369047D01*
X102924761Y-94416666D01*
X102972380Y-94511904D01*
X102972380Y-94654761D01*
X102305714Y-94035714D02*
X102305714Y-93654761D01*
X101972380Y-93892857D02*
X102829523Y-93892857D01*
X102924761Y-93845238D01*
X102972380Y-93750000D01*
X102972380Y-93654761D01*
X100828095Y-161812380D02*
X100828095Y-162621904D01*
X100875714Y-162717142D01*
X100923333Y-162764761D01*
X101018571Y-162812380D01*
X101209047Y-162812380D01*
X101304285Y-162764761D01*
X101351904Y-162717142D01*
X101399523Y-162621904D01*
X101399523Y-161812380D01*
X102304285Y-161812380D02*
X102113809Y-161812380D01*
X102018571Y-161860000D01*
X101970952Y-161907619D01*
X101875714Y-162050476D01*
X101828095Y-162240952D01*
X101828095Y-162621904D01*
X101875714Y-162717142D01*
X101923333Y-162764761D01*
X102018571Y-162812380D01*
X102209047Y-162812380D01*
X102304285Y-162764761D01*
X102351904Y-162717142D01*
X102399523Y-162621904D01*
X102399523Y-162383809D01*
X102351904Y-162288571D01*
X102304285Y-162240952D01*
X102209047Y-162193333D01*
X102018571Y-162193333D01*
X101923333Y-162240952D01*
X101875714Y-162288571D01*
X101828095Y-162383809D01*
X33198095Y-35452380D02*
X33769523Y-35452380D01*
X33483809Y-36452380D02*
X33483809Y-35452380D01*
X34102857Y-36452380D02*
X34102857Y-35452380D01*
X34483809Y-35452380D01*
X34579047Y-35500000D01*
X34626666Y-35547619D01*
X34674285Y-35642857D01*
X34674285Y-35785714D01*
X34626666Y-35880952D01*
X34579047Y-35928571D01*
X34483809Y-35976190D01*
X34102857Y-35976190D01*
X35055238Y-35547619D02*
X35102857Y-35500000D01*
X35198095Y-35452380D01*
X35436190Y-35452380D01*
X35531428Y-35500000D01*
X35579047Y-35547619D01*
X35626666Y-35642857D01*
X35626666Y-35738095D01*
X35579047Y-35880952D01*
X35007619Y-36452380D01*
X35626666Y-36452380D01*
X101592142Y-190857142D02*
X101544523Y-190904761D01*
X101401666Y-190952380D01*
X101306428Y-190952380D01*
X101163571Y-190904761D01*
X101068333Y-190809523D01*
X101020714Y-190714285D01*
X100973095Y-190523809D01*
X100973095Y-190380952D01*
X101020714Y-190190476D01*
X101068333Y-190095238D01*
X101163571Y-190000000D01*
X101306428Y-189952380D01*
X101401666Y-189952380D01*
X101544523Y-190000000D01*
X101592142Y-190047619D01*
X102544523Y-190952380D02*
X101973095Y-190952380D01*
X102258809Y-190952380D02*
X102258809Y-189952380D01*
X102163571Y-190095238D01*
X102068333Y-190190476D01*
X101973095Y-190238095D01*
X103496904Y-190952380D02*
X102925476Y-190952380D01*
X103211190Y-190952380D02*
X103211190Y-189952380D01*
X103115952Y-190095238D01*
X103020714Y-190190476D01*
X102925476Y-190238095D01*
X107788095Y-46002380D02*
X108359523Y-46002380D01*
X108073809Y-47002380D02*
X108073809Y-46002380D01*
X108692857Y-47002380D02*
X108692857Y-46002380D01*
X109073809Y-46002380D01*
X109169047Y-46050000D01*
X109216666Y-46097619D01*
X109264285Y-46192857D01*
X109264285Y-46335714D01*
X109216666Y-46430952D01*
X109169047Y-46478571D01*
X109073809Y-46526190D01*
X108692857Y-46526190D01*
X110121428Y-46002380D02*
X109930952Y-46002380D01*
X109835714Y-46050000D01*
X109788095Y-46097619D01*
X109692857Y-46240476D01*
X109645238Y-46430952D01*
X109645238Y-46811904D01*
X109692857Y-46907142D01*
X109740476Y-46954761D01*
X109835714Y-47002380D01*
X110026190Y-47002380D01*
X110121428Y-46954761D01*
X110169047Y-46907142D01*
X110216666Y-46811904D01*
X110216666Y-46573809D01*
X110169047Y-46478571D01*
X110121428Y-46430952D01*
X110026190Y-46383333D01*
X109835714Y-46383333D01*
X109740476Y-46430952D01*
X109692857Y-46478571D01*
X109645238Y-46573809D01*
X108232380Y-76361904D02*
X108232380Y-75790476D01*
X109232380Y-76076190D02*
X108232380Y-76076190D01*
X109232380Y-75457142D02*
X108232380Y-75457142D01*
X108232380Y-75076190D01*
X108280000Y-74980952D01*
X108327619Y-74933333D01*
X108422857Y-74885714D01*
X108565714Y-74885714D01*
X108660952Y-74933333D01*
X108708571Y-74980952D01*
X108756190Y-75076190D01*
X108756190Y-75457142D01*
X109232380Y-73933333D02*
X109232380Y-74504761D01*
X109232380Y-74219047D02*
X108232380Y-74219047D01*
X108375238Y-74314285D01*
X108470476Y-74409523D01*
X108518095Y-74504761D01*
X100818333Y-134632142D02*
X100770714Y-134679761D01*
X100627857Y-134727380D01*
X100532619Y-134727380D01*
X100389761Y-134679761D01*
X100294523Y-134584523D01*
X100246904Y-134489285D01*
X100199285Y-134298809D01*
X100199285Y-134155952D01*
X100246904Y-133965476D01*
X100294523Y-133870238D01*
X100389761Y-133775000D01*
X100532619Y-133727380D01*
X100627857Y-133727380D01*
X100770714Y-133775000D01*
X100818333Y-133822619D01*
X101723095Y-133727380D02*
X101246904Y-133727380D01*
X101199285Y-134203571D01*
X101246904Y-134155952D01*
X101342142Y-134108333D01*
X101580238Y-134108333D01*
X101675476Y-134155952D01*
X101723095Y-134203571D01*
X101770714Y-134298809D01*
X101770714Y-134536904D01*
X101723095Y-134632142D01*
X101675476Y-134679761D01*
X101580238Y-134727380D01*
X101342142Y-134727380D01*
X101246904Y-134679761D01*
X101199285Y-134632142D01*
X51974761Y-192067619D02*
X51879523Y-192020000D01*
X51784285Y-191924761D01*
X51641428Y-191781904D01*
X51546190Y-191734285D01*
X51450952Y-191734285D01*
X51498571Y-191972380D02*
X51403333Y-191924761D01*
X51308095Y-191829523D01*
X51260476Y-191639047D01*
X51260476Y-191305714D01*
X51308095Y-191115238D01*
X51403333Y-191020000D01*
X51498571Y-190972380D01*
X51689047Y-190972380D01*
X51784285Y-191020000D01*
X51879523Y-191115238D01*
X51927142Y-191305714D01*
X51927142Y-191639047D01*
X51879523Y-191829523D01*
X51784285Y-191924761D01*
X51689047Y-191972380D01*
X51498571Y-191972380D01*
X52879523Y-191972380D02*
X52308095Y-191972380D01*
X52593809Y-191972380D02*
X52593809Y-190972380D01*
X52498571Y-191115238D01*
X52403333Y-191210476D01*
X52308095Y-191258095D01*
X58324761Y-149137619D02*
X58229523Y-149090000D01*
X58134285Y-148994761D01*
X57991428Y-148851904D01*
X57896190Y-148804285D01*
X57800952Y-148804285D01*
X57848571Y-149042380D02*
X57753333Y-148994761D01*
X57658095Y-148899523D01*
X57610476Y-148709047D01*
X57610476Y-148375714D01*
X57658095Y-148185238D01*
X57753333Y-148090000D01*
X57848571Y-148042380D01*
X58039047Y-148042380D01*
X58134285Y-148090000D01*
X58229523Y-148185238D01*
X58277142Y-148375714D01*
X58277142Y-148709047D01*
X58229523Y-148899523D01*
X58134285Y-148994761D01*
X58039047Y-149042380D01*
X57848571Y-149042380D01*
X58848571Y-148470952D02*
X58753333Y-148423333D01*
X58705714Y-148375714D01*
X58658095Y-148280476D01*
X58658095Y-148232857D01*
X58705714Y-148137619D01*
X58753333Y-148090000D01*
X58848571Y-148042380D01*
X59039047Y-148042380D01*
X59134285Y-148090000D01*
X59181904Y-148137619D01*
X59229523Y-148232857D01*
X59229523Y-148280476D01*
X59181904Y-148375714D01*
X59134285Y-148423333D01*
X59039047Y-148470952D01*
X58848571Y-148470952D01*
X58753333Y-148518571D01*
X58705714Y-148566190D01*
X58658095Y-148661428D01*
X58658095Y-148851904D01*
X58705714Y-148947142D01*
X58753333Y-148994761D01*
X58848571Y-149042380D01*
X59039047Y-149042380D01*
X59134285Y-148994761D01*
X59181904Y-148947142D01*
X59229523Y-148851904D01*
X59229523Y-148661428D01*
X59181904Y-148566190D01*
X59134285Y-148518571D01*
X59039047Y-148470952D01*
X34666666Y-149312380D02*
X34666666Y-150026666D01*
X34619047Y-150169523D01*
X34523809Y-150264761D01*
X34380952Y-150312380D01*
X34285714Y-150312380D01*
X35142857Y-150312380D02*
X35142857Y-149312380D01*
X35523809Y-149312380D01*
X35619047Y-149360000D01*
X35666666Y-149407619D01*
X35714285Y-149502857D01*
X35714285Y-149645714D01*
X35666666Y-149740952D01*
X35619047Y-149788571D01*
X35523809Y-149836190D01*
X35142857Y-149836190D01*
X36666666Y-150312380D02*
X36095238Y-150312380D01*
X36380952Y-150312380D02*
X36380952Y-149312380D01*
X36285714Y-149455238D01*
X36190476Y-149550476D01*
X36095238Y-149598095D01*
X90527142Y-45886666D02*
X90574761Y-45934285D01*
X90622380Y-46077142D01*
X90622380Y-46172380D01*
X90574761Y-46315238D01*
X90479523Y-46410476D01*
X90384285Y-46458095D01*
X90193809Y-46505714D01*
X90050952Y-46505714D01*
X89860476Y-46458095D01*
X89765238Y-46410476D01*
X89670000Y-46315238D01*
X89622380Y-46172380D01*
X89622380Y-46077142D01*
X89670000Y-45934285D01*
X89717619Y-45886666D01*
X90622380Y-45410476D02*
X90622380Y-45220000D01*
X90574761Y-45124761D01*
X90527142Y-45077142D01*
X90384285Y-44981904D01*
X90193809Y-44934285D01*
X89812857Y-44934285D01*
X89717619Y-44981904D01*
X89670000Y-45029523D01*
X89622380Y-45124761D01*
X89622380Y-45315238D01*
X89670000Y-45410476D01*
X89717619Y-45458095D01*
X89812857Y-45505714D01*
X90050952Y-45505714D01*
X90146190Y-45458095D01*
X90193809Y-45410476D01*
X90241428Y-45315238D01*
X90241428Y-45124761D01*
X90193809Y-45029523D01*
X90146190Y-44981904D01*
X90050952Y-44934285D01*
X90527142Y-62872857D02*
X90574761Y-62920476D01*
X90622380Y-63063333D01*
X90622380Y-63158571D01*
X90574761Y-63301428D01*
X90479523Y-63396666D01*
X90384285Y-63444285D01*
X90193809Y-63491904D01*
X90050952Y-63491904D01*
X89860476Y-63444285D01*
X89765238Y-63396666D01*
X89670000Y-63301428D01*
X89622380Y-63158571D01*
X89622380Y-63063333D01*
X89670000Y-62920476D01*
X89717619Y-62872857D01*
X90622380Y-61920476D02*
X90622380Y-62491904D01*
X90622380Y-62206190D02*
X89622380Y-62206190D01*
X89765238Y-62301428D01*
X89860476Y-62396666D01*
X89908095Y-62491904D01*
X89622380Y-61301428D02*
X89622380Y-61206190D01*
X89670000Y-61110952D01*
X89717619Y-61063333D01*
X89812857Y-61015714D01*
X90003333Y-60968095D01*
X90241428Y-60968095D01*
X90431904Y-61015714D01*
X90527142Y-61063333D01*
X90574761Y-61110952D01*
X90622380Y-61206190D01*
X90622380Y-61301428D01*
X90574761Y-61396666D01*
X90527142Y-61444285D01*
X90431904Y-61491904D01*
X90241428Y-61539523D01*
X90003333Y-61539523D01*
X89812857Y-61491904D01*
X89717619Y-61444285D01*
X89670000Y-61396666D01*
X89622380Y-61301428D01*
X85447142Y-45886666D02*
X85494761Y-45934285D01*
X85542380Y-46077142D01*
X85542380Y-46172380D01*
X85494761Y-46315238D01*
X85399523Y-46410476D01*
X85304285Y-46458095D01*
X85113809Y-46505714D01*
X84970952Y-46505714D01*
X84780476Y-46458095D01*
X84685238Y-46410476D01*
X84590000Y-46315238D01*
X84542380Y-46172380D01*
X84542380Y-46077142D01*
X84590000Y-45934285D01*
X84637619Y-45886666D01*
X84875714Y-45029523D02*
X85542380Y-45029523D01*
X84494761Y-45267619D02*
X85209047Y-45505714D01*
X85209047Y-44886666D01*
D12*
X84125000Y-167580000D02*
X84125000Y-190560000D01*
X84125000Y-190560000D02*
X85375000Y-190560000D01*
X88625000Y-167580000D02*
X84125000Y-167580000D01*
X87375000Y-190560000D02*
X88625000Y-190560000D01*
X88625000Y-190560000D02*
X88625000Y-167580000D01*
X87375000Y-190560000D02*
G75*
G03*
X85375000Y-190560000I-1000000J0D01*
G01*
X73689000Y-57971000D02*
X71141000Y-57971000D01*
X76560000Y-59411000D02*
X73300000Y-59411000D01*
X77295000Y-59091000D02*
X72565000Y-59091000D01*
X79895000Y-55651000D02*
X69965000Y-55651000D01*
X79912000Y-55571000D02*
X69948000Y-55571000D01*
X79455000Y-56891000D02*
X76171000Y-56891000D01*
X79713000Y-56291000D02*
X76171000Y-56291000D01*
X73689000Y-57331000D02*
X70657000Y-57331000D01*
X80008000Y-54730000D02*
X69852000Y-54730000D01*
X79948000Y-55371000D02*
X69912000Y-55371000D01*
X79960000Y-55291000D02*
X69900000Y-55291000D01*
X73689000Y-57531000D02*
X70792000Y-57531000D01*
X78086000Y-58571000D02*
X71774000Y-58571000D01*
X73689000Y-57811000D02*
X71005000Y-57811000D01*
X73689000Y-56531000D02*
X70240000Y-56531000D01*
X73689000Y-58091000D02*
X71251000Y-58091000D01*
X79904000Y-55611000D02*
X69956000Y-55611000D01*
X79848000Y-55851000D02*
X76171000Y-55851000D01*
X76160000Y-59531000D02*
X73700000Y-59531000D01*
X77875000Y-58731000D02*
X71985000Y-58731000D01*
X79965000Y-55250000D02*
X69895000Y-55250000D01*
X79837000Y-55891000D02*
X76171000Y-55891000D01*
X79010000Y-57611000D02*
X76171000Y-57611000D01*
X79040000Y-57571000D02*
X76171000Y-57571000D01*
X78980000Y-57651000D02*
X76171000Y-57651000D01*
X73689000Y-55971000D02*
X70045000Y-55971000D01*
X73689000Y-58251000D02*
X71410000Y-58251000D01*
X78231000Y-58451000D02*
X71629000Y-58451000D01*
X77139000Y-59171000D02*
X72721000Y-59171000D01*
X73689000Y-56731000D02*
X70327000Y-56731000D01*
X79203000Y-57331000D02*
X76171000Y-57331000D01*
X73689000Y-56211000D02*
X70119000Y-56211000D01*
X73689000Y-58171000D02*
X71329000Y-58171000D01*
X79124000Y-57451000D02*
X76171000Y-57451000D01*
X77219000Y-59131000D02*
X72641000Y-59131000D01*
X79941000Y-55411000D02*
X69919000Y-55411000D01*
X79475000Y-56851000D02*
X76171000Y-56851000D01*
X79684000Y-56371000D02*
X76171000Y-56371000D01*
X79741000Y-56211000D02*
X76171000Y-56211000D01*
X73689000Y-56851000D02*
X70385000Y-56851000D01*
X78754000Y-57931000D02*
X76171000Y-57931000D01*
X77984000Y-58651000D02*
X71876000Y-58651000D01*
X79668000Y-56411000D02*
X76171000Y-56411000D01*
X73689000Y-57451000D02*
X70736000Y-57451000D01*
X80010000Y-54610000D02*
X69850000Y-54610000D01*
X73689000Y-56371000D02*
X70176000Y-56371000D01*
X73689000Y-55891000D02*
X70023000Y-55891000D01*
X78322000Y-58371000D02*
X71538000Y-58371000D01*
X73689000Y-56171000D02*
X70106000Y-56171000D01*
X75792000Y-59611000D02*
X74068000Y-59611000D01*
X73689000Y-56931000D02*
X70426000Y-56931000D01*
X78609000Y-58091000D02*
X76171000Y-58091000D01*
X73689000Y-57011000D02*
X70468000Y-57011000D01*
X78277000Y-58411000D02*
X71583000Y-58411000D01*
X73689000Y-56291000D02*
X70147000Y-56291000D01*
X73689000Y-57611000D02*
X70850000Y-57611000D01*
X79858000Y-55811000D02*
X70002000Y-55811000D01*
X79975000Y-55170000D02*
X69885000Y-55170000D01*
X80000000Y-54890000D02*
X69860000Y-54890000D01*
X75992000Y-59571000D02*
X73868000Y-59571000D01*
X77805000Y-49090354D02*
X77805000Y-50090354D01*
X76672000Y-59371000D02*
X73188000Y-59371000D01*
X73689000Y-56051000D02*
X70068000Y-56051000D01*
X73689000Y-56611000D02*
X70273000Y-56611000D01*
X79653000Y-56451000D02*
X76171000Y-56451000D01*
X78450000Y-58251000D02*
X76171000Y-58251000D01*
X79877000Y-55731000D02*
X69983000Y-55731000D01*
X73689000Y-57291000D02*
X70632000Y-57291000D01*
X78184000Y-58491000D02*
X71676000Y-58491000D01*
X79494000Y-56811000D02*
X76171000Y-56811000D01*
X73689000Y-56331000D02*
X70162000Y-56331000D01*
X79868000Y-55771000D02*
X69992000Y-55771000D01*
X78887000Y-57771000D02*
X76171000Y-57771000D01*
X79792000Y-56051000D02*
X76171000Y-56051000D01*
X78408000Y-58291000D02*
X76171000Y-58291000D01*
X79970000Y-55210000D02*
X69890000Y-55210000D01*
X78788000Y-57891000D02*
X76171000Y-57891000D01*
X79980000Y-55130000D02*
X69880000Y-55130000D01*
X73689000Y-56971000D02*
X70447000Y-56971000D01*
X73689000Y-58291000D02*
X71452000Y-58291000D01*
X79413000Y-56971000D02*
X76171000Y-56971000D01*
X77575000Y-58931000D02*
X72285000Y-58931000D01*
X79151000Y-57411000D02*
X76171000Y-57411000D01*
X73689000Y-57651000D02*
X70880000Y-57651000D01*
X77440000Y-59011000D02*
X72420000Y-59011000D01*
X79096000Y-57491000D02*
X76171000Y-57491000D01*
X79927000Y-55491000D02*
X69933000Y-55491000D01*
X79804000Y-56011000D02*
X76171000Y-56011000D01*
X78683000Y-58011000D02*
X76171000Y-58011000D01*
X79767000Y-56131000D02*
X76171000Y-56131000D01*
X73689000Y-56651000D02*
X70291000Y-56651000D01*
X78491000Y-58211000D02*
X76171000Y-58211000D01*
X79604000Y-56571000D02*
X76171000Y-56571000D01*
X73689000Y-56451000D02*
X70207000Y-56451000D01*
X73689000Y-57371000D02*
X70683000Y-57371000D01*
X73689000Y-57091000D02*
X70513000Y-57091000D01*
X79934000Y-55451000D02*
X69926000Y-55451000D01*
X78531000Y-58171000D02*
X76171000Y-58171000D01*
X77509000Y-58971000D02*
X72351000Y-58971000D01*
X75529000Y-59651000D02*
X74331000Y-59651000D01*
X76440000Y-59451000D02*
X73420000Y-59451000D01*
X78822000Y-57851000D02*
X76171000Y-57851000D01*
X77055000Y-59211000D02*
X72805000Y-59211000D01*
X80003000Y-54850000D02*
X69857000Y-54850000D01*
X73689000Y-57131000D02*
X70535000Y-57131000D01*
X73689000Y-56571000D02*
X70256000Y-56571000D01*
X78855000Y-57811000D02*
X76171000Y-57811000D01*
X73689000Y-56091000D02*
X70080000Y-56091000D01*
X79780000Y-56091000D02*
X76171000Y-56091000D01*
X73689000Y-58051000D02*
X71214000Y-58051000D01*
X79992000Y-55010000D02*
X69868000Y-55010000D01*
X79988000Y-55050000D02*
X69872000Y-55050000D01*
X79754000Y-56171000D02*
X76171000Y-56171000D01*
X73689000Y-57251000D02*
X70607000Y-57251000D01*
X77700000Y-58851000D02*
X72160000Y-58851000D01*
X79392000Y-57011000D02*
X76171000Y-57011000D01*
X73689000Y-57411000D02*
X70709000Y-57411000D01*
X73689000Y-57571000D02*
X70820000Y-57571000D01*
X73689000Y-56691000D02*
X70309000Y-56691000D01*
X79347000Y-57091000D02*
X76171000Y-57091000D01*
X73689000Y-57051000D02*
X70490000Y-57051000D01*
X73689000Y-57931000D02*
X71106000Y-57931000D01*
X79551000Y-56691000D02*
X76171000Y-56691000D01*
X79177000Y-57371000D02*
X76171000Y-57371000D01*
X80010000Y-54570000D02*
X69850000Y-54570000D01*
X79370000Y-57051000D02*
X76171000Y-57051000D01*
X77930000Y-58691000D02*
X71930000Y-58691000D01*
X73689000Y-58131000D02*
X71290000Y-58131000D01*
X73689000Y-56491000D02*
X70223000Y-56491000D01*
X80009000Y-54690000D02*
X69851000Y-54690000D01*
X80005000Y-54810000D02*
X69855000Y-54810000D01*
X76874000Y-59291000D02*
X72986000Y-59291000D01*
X79698000Y-56331000D02*
X76171000Y-56331000D01*
X79998000Y-54930000D02*
X69862000Y-54930000D01*
X79514000Y-56771000D02*
X76171000Y-56771000D01*
X73689000Y-57691000D02*
X70910000Y-57691000D01*
X73689000Y-55931000D02*
X70033000Y-55931000D01*
X78950000Y-57691000D02*
X76171000Y-57691000D01*
X73689000Y-57731000D02*
X70941000Y-57731000D01*
X73689000Y-56131000D02*
X70093000Y-56131000D01*
X76776000Y-59331000D02*
X73084000Y-59331000D01*
X79886000Y-55691000D02*
X69974000Y-55691000D01*
X77819000Y-58771000D02*
X72041000Y-58771000D01*
X78646000Y-58051000D02*
X76171000Y-58051000D01*
X79434000Y-56931000D02*
X76171000Y-56931000D01*
X78036000Y-58611000D02*
X71824000Y-58611000D01*
X77639000Y-58891000D02*
X72221000Y-58891000D01*
X78136000Y-58531000D02*
X71724000Y-58531000D01*
X79620000Y-56531000D02*
X76171000Y-56531000D01*
X73689000Y-57771000D02*
X70973000Y-57771000D01*
X79815000Y-55971000D02*
X76171000Y-55971000D01*
X79920000Y-55531000D02*
X69940000Y-55531000D01*
X80010000Y-54650000D02*
X69850000Y-54650000D01*
X73689000Y-56411000D02*
X70192000Y-56411000D01*
X73689000Y-55851000D02*
X70012000Y-55851000D01*
X78719000Y-57971000D02*
X76171000Y-57971000D01*
X79637000Y-56491000D02*
X76171000Y-56491000D01*
X73689000Y-56251000D02*
X70133000Y-56251000D01*
X79727000Y-56251000D02*
X76171000Y-56251000D01*
X79301000Y-57171000D02*
X76171000Y-57171000D01*
X73689000Y-58011000D02*
X71177000Y-58011000D01*
X78366000Y-58331000D02*
X71494000Y-58331000D01*
X73689000Y-56811000D02*
X70366000Y-56811000D01*
X73689000Y-57851000D02*
X71038000Y-57851000D01*
X79827000Y-55931000D02*
X76171000Y-55931000D01*
X79995000Y-54970000D02*
X69865000Y-54970000D01*
X73689000Y-56891000D02*
X70405000Y-56891000D01*
X80007000Y-54770000D02*
X69853000Y-54770000D01*
X78305000Y-49590354D02*
X77305000Y-49590354D01*
X78919000Y-57731000D02*
X76171000Y-57731000D01*
X79587000Y-56611000D02*
X76171000Y-56611000D01*
X76967000Y-59251000D02*
X72893000Y-59251000D01*
X76308000Y-59491000D02*
X73552000Y-59491000D01*
X73689000Y-56771000D02*
X70346000Y-56771000D01*
X73689000Y-57211000D02*
X70583000Y-57211000D01*
X73689000Y-57891000D02*
X71072000Y-57891000D01*
X79569000Y-56651000D02*
X76171000Y-56651000D01*
X79533000Y-56731000D02*
X76171000Y-56731000D01*
X77369000Y-59051000D02*
X72491000Y-59051000D01*
X73689000Y-58211000D02*
X71369000Y-58211000D01*
X73689000Y-57171000D02*
X70559000Y-57171000D01*
X79228000Y-57291000D02*
X76171000Y-57291000D01*
X73689000Y-57491000D02*
X70764000Y-57491000D01*
X79954000Y-55331000D02*
X69906000Y-55331000D01*
X79068000Y-57531000D02*
X76171000Y-57531000D01*
X79277000Y-57211000D02*
X76171000Y-57211000D01*
X73689000Y-56011000D02*
X70056000Y-56011000D01*
X79984000Y-55090000D02*
X69876000Y-55090000D01*
X77760000Y-58811000D02*
X72100000Y-58811000D01*
X78570000Y-58131000D02*
X76171000Y-58131000D01*
X79253000Y-57251000D02*
X76171000Y-57251000D01*
X79325000Y-57131000D02*
X76171000Y-57131000D01*
X80050000Y-54570000D02*
G75*
G03*
X80050000Y-54570000I-5120000J0D01*
G01*
X47520000Y-163250000D02*
X43920000Y-163250000D01*
X45720000Y-167700001D02*
G75*
G03*
X47558478Y-163261522I0J2600001D01*
G01*
X43881522Y-163261522D02*
G75*
G03*
X45720000Y-167700000I1838478J-1838478D01*
G01*
X50180000Y-57580000D02*
X45680000Y-57580000D01*
X61580000Y-52110000D02*
X50180000Y-52110000D01*
X50180000Y-57580000D02*
X50180000Y-56010000D01*
X50180000Y-51640000D02*
X50180000Y-53210000D01*
X45680000Y-57580000D02*
X45680000Y-56010000D01*
X50180000Y-51640000D02*
X45680000Y-51640000D01*
X61580000Y-57110000D02*
X50180000Y-57110000D01*
X61580000Y-57580000D02*
X66080000Y-57580000D01*
X61580000Y-51640000D02*
X61580000Y-53210000D01*
X66080000Y-51640000D02*
X61580000Y-51640000D01*
X45680000Y-51640000D02*
X45680000Y-53210000D01*
X66080000Y-56010000D02*
X66080000Y-57580000D01*
X66080000Y-53210000D02*
X66080000Y-51640000D01*
X61580000Y-57580000D02*
X61580000Y-56010000D01*
X99390000Y-162710000D02*
X99390000Y-162775000D01*
X96150000Y-162710000D02*
X96150000Y-162775000D01*
X99390000Y-164885000D02*
X99390000Y-164950000D01*
X96150000Y-164950000D02*
X99390000Y-164950000D01*
X96150000Y-164885000D02*
X96150000Y-164950000D01*
X96150000Y-162710000D02*
X99390000Y-162710000D01*
X84110000Y-140910000D02*
X84110000Y-163890000D01*
X84110000Y-163890000D02*
X85360000Y-163890000D01*
X88610000Y-140910000D02*
X84110000Y-140910000D01*
X87360000Y-163890000D02*
X88610000Y-163890000D01*
X88610000Y-163890000D02*
X88610000Y-140910000D01*
X87360000Y-163890000D02*
G75*
G03*
X85360000Y-163890000I-1000000J0D01*
G01*
X85305000Y-130460000D02*
X85240000Y-130460000D01*
X87480000Y-133700000D02*
X87415000Y-133700000D01*
X87480000Y-130460000D02*
X87415000Y-130460000D01*
X85240000Y-130460000D02*
X85240000Y-133700000D01*
X85305000Y-133700000D02*
X85240000Y-133700000D01*
X87480000Y-130460000D02*
X87480000Y-133700000D01*
X76200000Y-136120000D02*
X76200000Y-135350000D01*
X77570000Y-128810000D02*
X74830000Y-128810000D01*
X74830000Y-135350000D02*
X77570000Y-135350000D01*
X77570000Y-135350000D02*
X77570000Y-128810000D01*
X74830000Y-128810000D02*
X74830000Y-135350000D01*
X76200000Y-128040000D02*
X76200000Y-128810000D01*
X60270000Y-131340000D02*
X60270000Y-127740000D01*
X60258478Y-127701522D02*
G75*
G03*
X55820000Y-129540000I-1838478J-1838478D01*
G01*
X55819999Y-129540000D02*
G75*
G03*
X60258478Y-131378478I2600001J0D01*
G01*
X40740000Y-160560000D02*
X38000000Y-160560000D01*
X39370000Y-167870000D02*
X39370000Y-167100000D01*
X38000000Y-167100000D02*
X40740000Y-167100000D01*
X40740000Y-167100000D02*
X40740000Y-160560000D01*
X39370000Y-159790000D02*
X39370000Y-160560000D01*
X38000000Y-160560000D02*
X38000000Y-167100000D01*
X78855000Y-41301000D02*
X76171000Y-41301000D01*
X73689000Y-40981000D02*
X70764000Y-40981000D01*
X79684000Y-39861000D02*
X76171000Y-39861000D01*
X73689000Y-39781000D02*
X70147000Y-39781000D01*
X78919000Y-41221000D02*
X76171000Y-41221000D01*
X73689000Y-39941000D02*
X70207000Y-39941000D01*
X76967000Y-42741000D02*
X72893000Y-42741000D01*
X73689000Y-40021000D02*
X70240000Y-40021000D01*
X73689000Y-41541000D02*
X71214000Y-41541000D01*
X73689000Y-40061000D02*
X70256000Y-40061000D01*
X79068000Y-41021000D02*
X76171000Y-41021000D01*
X73689000Y-40621000D02*
X70535000Y-40621000D01*
X73689000Y-40141000D02*
X70291000Y-40141000D01*
X79912000Y-39061000D02*
X69948000Y-39061000D01*
X79124000Y-40941000D02*
X76171000Y-40941000D01*
X73689000Y-39901000D02*
X70192000Y-39901000D01*
X77440000Y-42501000D02*
X72420000Y-42501000D01*
X78719000Y-41461000D02*
X76171000Y-41461000D01*
X73689000Y-41181000D02*
X70910000Y-41181000D01*
X78646000Y-41541000D02*
X76171000Y-41541000D01*
X77984000Y-42141000D02*
X71876000Y-42141000D01*
X80000000Y-38380000D02*
X69860000Y-38380000D01*
X73689000Y-39501000D02*
X70056000Y-39501000D01*
X79780000Y-39581000D02*
X76171000Y-39581000D01*
X79347000Y-40581000D02*
X76171000Y-40581000D01*
X79325000Y-40621000D02*
X76171000Y-40621000D01*
X77639000Y-42381000D02*
X72221000Y-42381000D01*
X78609000Y-41581000D02*
X76171000Y-41581000D01*
X79975000Y-38660000D02*
X69885000Y-38660000D01*
X73689000Y-41781000D02*
X71452000Y-41781000D01*
X73689000Y-41101000D02*
X70850000Y-41101000D01*
X79886000Y-39181000D02*
X69974000Y-39181000D01*
X73689000Y-39821000D02*
X70162000Y-39821000D01*
X78086000Y-42061000D02*
X71774000Y-42061000D01*
X79177000Y-40861000D02*
X76171000Y-40861000D01*
X73689000Y-40461000D02*
X70447000Y-40461000D01*
X73689000Y-40301000D02*
X70366000Y-40301000D01*
X79637000Y-39981000D02*
X76171000Y-39981000D01*
X73689000Y-41581000D02*
X71251000Y-41581000D01*
X73689000Y-41021000D02*
X70792000Y-41021000D01*
X73689000Y-39701000D02*
X70119000Y-39701000D01*
X77875000Y-42221000D02*
X71985000Y-42221000D01*
X79668000Y-39901000D02*
X76171000Y-39901000D01*
X79920000Y-39021000D02*
X69940000Y-39021000D01*
X73689000Y-40741000D02*
X70607000Y-40741000D01*
X73689000Y-39981000D02*
X70223000Y-39981000D01*
X79698000Y-39821000D02*
X76171000Y-39821000D01*
X73689000Y-41461000D02*
X71141000Y-41461000D01*
X78136000Y-42021000D02*
X71724000Y-42021000D01*
X73689000Y-41741000D02*
X71410000Y-41741000D01*
X79301000Y-40661000D02*
X76171000Y-40661000D01*
X73689000Y-41141000D02*
X70880000Y-41141000D01*
X73689000Y-39381000D02*
X70023000Y-39381000D01*
X73689000Y-40181000D02*
X70309000Y-40181000D01*
X77760000Y-42301000D02*
X72100000Y-42301000D01*
X73689000Y-41621000D02*
X71290000Y-41621000D01*
X77369000Y-42541000D02*
X72491000Y-42541000D01*
X79434000Y-40421000D02*
X76171000Y-40421000D01*
X80010000Y-38060000D02*
X69850000Y-38060000D01*
X79455000Y-40381000D02*
X76171000Y-40381000D01*
X78788000Y-41381000D02*
X76171000Y-41381000D01*
X79827000Y-39421000D02*
X76171000Y-39421000D01*
X79767000Y-39621000D02*
X76171000Y-39621000D01*
X77805000Y-32580354D02*
X77805000Y-33580354D01*
X79954000Y-38821000D02*
X69906000Y-38821000D01*
X78231000Y-41941000D02*
X71629000Y-41941000D01*
X79877000Y-39221000D02*
X69983000Y-39221000D01*
X79948000Y-38861000D02*
X69912000Y-38861000D01*
X78754000Y-41421000D02*
X76171000Y-41421000D01*
X79253000Y-40741000D02*
X76171000Y-40741000D01*
X79998000Y-38420000D02*
X69862000Y-38420000D01*
X80005000Y-38300000D02*
X69855000Y-38300000D01*
X79934000Y-38941000D02*
X69926000Y-38941000D01*
X80003000Y-38340000D02*
X69857000Y-38340000D01*
X77575000Y-42421000D02*
X72285000Y-42421000D01*
X79927000Y-38981000D02*
X69933000Y-38981000D01*
X79096000Y-40981000D02*
X76171000Y-40981000D01*
X79727000Y-39741000D02*
X76171000Y-39741000D01*
X73689000Y-41221000D02*
X70941000Y-41221000D01*
X79965000Y-38740000D02*
X69895000Y-38740000D01*
X79960000Y-38781000D02*
X69900000Y-38781000D01*
X78036000Y-42101000D02*
X71824000Y-42101000D01*
X79848000Y-39341000D02*
X76171000Y-39341000D01*
X76560000Y-42901000D02*
X73300000Y-42901000D01*
X80010000Y-38140000D02*
X69850000Y-38140000D01*
X79984000Y-38580000D02*
X69876000Y-38580000D01*
X73689000Y-40501000D02*
X70468000Y-40501000D01*
X79713000Y-39781000D02*
X76171000Y-39781000D01*
X79895000Y-39141000D02*
X69965000Y-39141000D01*
X76308000Y-42981000D02*
X73552000Y-42981000D01*
X78683000Y-41501000D02*
X76171000Y-41501000D01*
X79653000Y-39941000D02*
X76171000Y-39941000D01*
X79228000Y-40781000D02*
X76171000Y-40781000D01*
X79475000Y-40341000D02*
X76171000Y-40341000D01*
X73689000Y-41061000D02*
X70820000Y-41061000D01*
X73689000Y-39421000D02*
X70033000Y-39421000D01*
X73689000Y-40701000D02*
X70583000Y-40701000D01*
X78184000Y-41981000D02*
X71676000Y-41981000D01*
X73689000Y-41341000D02*
X71038000Y-41341000D01*
X75792000Y-43101000D02*
X74068000Y-43101000D01*
X79995000Y-38460000D02*
X69865000Y-38460000D01*
X79392000Y-40501000D02*
X76171000Y-40501000D01*
X76776000Y-42821000D02*
X73084000Y-42821000D01*
X73689000Y-39741000D02*
X70133000Y-39741000D01*
X79804000Y-39501000D02*
X76171000Y-39501000D01*
X79868000Y-39261000D02*
X69992000Y-39261000D01*
X73689000Y-41661000D02*
X71329000Y-41661000D01*
X73689000Y-39541000D02*
X70068000Y-39541000D01*
X77055000Y-42701000D02*
X72805000Y-42701000D01*
X73689000Y-39461000D02*
X70045000Y-39461000D01*
X79904000Y-39101000D02*
X69956000Y-39101000D01*
X75992000Y-43061000D02*
X73868000Y-43061000D01*
X73689000Y-39341000D02*
X70012000Y-39341000D01*
X79604000Y-40061000D02*
X76171000Y-40061000D01*
X79533000Y-40221000D02*
X76171000Y-40221000D01*
X73689000Y-40861000D02*
X70683000Y-40861000D01*
X79370000Y-40541000D02*
X76171000Y-40541000D01*
X79941000Y-38901000D02*
X69919000Y-38901000D01*
X77819000Y-42261000D02*
X72041000Y-42261000D01*
X79970000Y-38700000D02*
X69890000Y-38700000D01*
X73689000Y-41301000D02*
X71005000Y-41301000D01*
X79413000Y-40461000D02*
X76171000Y-40461000D01*
X78408000Y-41781000D02*
X76171000Y-41781000D01*
X79203000Y-40821000D02*
X76171000Y-40821000D01*
X78322000Y-41861000D02*
X71538000Y-41861000D01*
X73689000Y-40581000D02*
X70513000Y-40581000D01*
X78570000Y-41621000D02*
X76171000Y-41621000D01*
X78366000Y-41821000D02*
X71494000Y-41821000D01*
X77139000Y-42661000D02*
X72721000Y-42661000D01*
X73689000Y-39861000D02*
X70176000Y-39861000D01*
X79754000Y-39661000D02*
X76171000Y-39661000D01*
X78305000Y-33080354D02*
X77305000Y-33080354D01*
X73689000Y-40421000D02*
X70426000Y-40421000D01*
X79992000Y-38500000D02*
X69868000Y-38500000D01*
X79587000Y-40101000D02*
X76171000Y-40101000D01*
X73689000Y-39661000D02*
X70106000Y-39661000D01*
X73689000Y-41381000D02*
X71072000Y-41381000D01*
X79151000Y-40901000D02*
X76171000Y-40901000D01*
X73689000Y-39621000D02*
X70093000Y-39621000D01*
X80010000Y-38100000D02*
X69850000Y-38100000D01*
X73689000Y-40661000D02*
X70559000Y-40661000D01*
X80008000Y-38220000D02*
X69852000Y-38220000D01*
X80007000Y-38260000D02*
X69853000Y-38260000D01*
X79858000Y-39301000D02*
X70002000Y-39301000D01*
X73689000Y-41421000D02*
X71106000Y-41421000D01*
X73689000Y-40781000D02*
X70632000Y-40781000D01*
X77509000Y-42461000D02*
X72351000Y-42461000D01*
X76672000Y-42861000D02*
X73188000Y-42861000D01*
X78887000Y-41261000D02*
X76171000Y-41261000D01*
X78822000Y-41341000D02*
X76171000Y-41341000D01*
X79514000Y-40261000D02*
X76171000Y-40261000D01*
X73689000Y-41701000D02*
X71369000Y-41701000D01*
X79040000Y-41061000D02*
X76171000Y-41061000D01*
X79815000Y-39461000D02*
X76171000Y-39461000D01*
X73689000Y-40101000D02*
X70273000Y-40101000D01*
X78277000Y-41901000D02*
X71583000Y-41901000D01*
X80009000Y-38180000D02*
X69851000Y-38180000D01*
X75529000Y-43141000D02*
X74331000Y-43141000D01*
X73689000Y-41501000D02*
X71177000Y-41501000D01*
X73689000Y-41261000D02*
X70973000Y-41261000D01*
X79980000Y-38620000D02*
X69880000Y-38620000D01*
X73689000Y-40221000D02*
X70327000Y-40221000D01*
X79741000Y-39701000D02*
X76171000Y-39701000D01*
X78450000Y-41741000D02*
X76171000Y-41741000D01*
X79988000Y-38540000D02*
X69872000Y-38540000D01*
X79569000Y-40141000D02*
X76171000Y-40141000D01*
X73689000Y-40901000D02*
X70709000Y-40901000D01*
X78980000Y-41141000D02*
X76171000Y-41141000D01*
X76874000Y-42781000D02*
X72986000Y-42781000D01*
X73689000Y-40821000D02*
X70657000Y-40821000D01*
X73689000Y-40261000D02*
X70346000Y-40261000D01*
X78950000Y-41181000D02*
X76171000Y-41181000D01*
X78491000Y-41701000D02*
X76171000Y-41701000D01*
X77219000Y-42621000D02*
X72641000Y-42621000D01*
X73689000Y-40941000D02*
X70736000Y-40941000D01*
X73689000Y-40541000D02*
X70490000Y-40541000D01*
X77700000Y-42341000D02*
X72160000Y-42341000D01*
X79620000Y-40021000D02*
X76171000Y-40021000D01*
X79837000Y-39381000D02*
X76171000Y-39381000D01*
X79792000Y-39541000D02*
X76171000Y-39541000D01*
X73689000Y-40341000D02*
X70385000Y-40341000D01*
X73689000Y-40381000D02*
X70405000Y-40381000D01*
X76440000Y-42941000D02*
X73420000Y-42941000D01*
X79010000Y-41101000D02*
X76171000Y-41101000D01*
X79494000Y-40301000D02*
X76171000Y-40301000D01*
X77930000Y-42181000D02*
X71930000Y-42181000D01*
X77295000Y-42581000D02*
X72565000Y-42581000D01*
X79551000Y-40181000D02*
X76171000Y-40181000D01*
X79277000Y-40701000D02*
X76171000Y-40701000D01*
X78531000Y-41661000D02*
X76171000Y-41661000D01*
X76160000Y-43021000D02*
X73700000Y-43021000D01*
X73689000Y-39581000D02*
X70080000Y-39581000D01*
X80050000Y-38060000D02*
G75*
G03*
X80050000Y-38060000I-5120000J0D01*
G01*
X36250000Y-142980000D02*
X36250000Y-146580000D01*
X40700001Y-144780000D02*
G75*
G03*
X36261522Y-142941522I-2600001J0D01*
G01*
X36261522Y-146618478D02*
G75*
G03*
X40700000Y-144780000I1838478J1838478D01*
G01*
X44990000Y-129640000D02*
X51530000Y-129640000D01*
X52300000Y-128270000D02*
X51530000Y-128270000D01*
X44990000Y-126900000D02*
X44990000Y-129640000D01*
X44220000Y-128270000D02*
X44990000Y-128270000D01*
X51530000Y-126900000D02*
X44990000Y-126900000D01*
X51530000Y-129640000D02*
X51530000Y-126900000D01*
X53340000Y-181840000D02*
X53340000Y-181070000D01*
X53340000Y-173760000D02*
X53340000Y-174530000D01*
X54710000Y-174530000D02*
X51970000Y-174530000D01*
X51970000Y-174530000D02*
X51970000Y-181070000D01*
X51970000Y-181070000D02*
X54710000Y-181070000D01*
X54710000Y-181070000D02*
X54710000Y-174530000D01*
X52300000Y-139700000D02*
X51530000Y-139700000D01*
X44220000Y-139700000D02*
X44990000Y-139700000D01*
X51530000Y-138330000D02*
X44990000Y-138330000D01*
X44990000Y-138330000D02*
X44990000Y-141070000D01*
X44990000Y-141070000D02*
X51530000Y-141070000D01*
X51530000Y-141070000D02*
X51530000Y-138330000D01*
X71020000Y-135350000D02*
X73760000Y-135350000D01*
X73760000Y-135350000D02*
X73760000Y-128810000D01*
X73760000Y-128810000D02*
X71020000Y-128810000D01*
X71020000Y-128810000D02*
X71020000Y-135350000D01*
X72390000Y-136120000D02*
X72390000Y-135350000D01*
X72390000Y-128040000D02*
X72390000Y-128810000D01*
X54765000Y-166700000D02*
X55085000Y-166700000D01*
X51595000Y-166700000D02*
X52665000Y-166700000D01*
X51595000Y-169220000D02*
X51595000Y-160980000D01*
X51595000Y-169220000D02*
X55085000Y-169220000D01*
X55085000Y-169220000D02*
X55085000Y-160980000D01*
X54255000Y-163499000D02*
X55085000Y-163499000D01*
X51595000Y-160980000D02*
X55085000Y-160980000D01*
X51595000Y-163499000D02*
X53175000Y-163499000D01*
X45720000Y-160250000D02*
X45720000Y-159480000D01*
X47090000Y-152940000D02*
X44350000Y-152940000D01*
X44350000Y-159480000D02*
X47090000Y-159480000D01*
X47090000Y-159480000D02*
X47090000Y-152940000D01*
X44350000Y-152940000D02*
X44350000Y-159480000D01*
X45720000Y-152170000D02*
X45720000Y-152940000D01*
X36250000Y-127740000D02*
X36250000Y-131340000D01*
X40700001Y-129540000D02*
G75*
G03*
X36261522Y-127701522I-2600001J0D01*
G01*
X36261522Y-131378478D02*
G75*
G03*
X40700000Y-129540000I1838478J1838478D01*
G01*
X111650000Y-52000000D02*
X111650000Y-49600000D01*
X111650000Y-49600000D02*
X106750000Y-49600000D01*
X106750000Y-49600000D02*
X106750000Y-52000000D01*
X106750000Y-52000000D02*
X111650000Y-52000000D01*
X80010000Y-136120000D02*
X80010000Y-135350000D01*
X78640000Y-135350000D02*
X81380000Y-135350000D01*
X78640000Y-128810000D02*
X78640000Y-135350000D01*
X81380000Y-128810000D02*
X78640000Y-128810000D01*
X80010000Y-128040000D02*
X80010000Y-128810000D01*
X81380000Y-135350000D02*
X81380000Y-128810000D01*
X48130000Y-85130000D02*
X46560000Y-85130000D01*
X52500000Y-80630000D02*
X50930000Y-80630000D01*
X52500000Y-69230000D02*
X52500000Y-64730000D01*
X46560000Y-80630000D02*
X48130000Y-80630000D01*
X46560000Y-80630000D02*
X46560000Y-85130000D01*
X52500000Y-85130000D02*
X52500000Y-80630000D01*
X52500000Y-69230000D02*
X50930000Y-69230000D01*
X47030000Y-80630000D02*
X47030000Y-69230000D01*
X52030000Y-80630000D02*
X52030000Y-69230000D01*
X46560000Y-64730000D02*
X48130000Y-64730000D01*
X50930000Y-85130000D02*
X52500000Y-85130000D01*
X46560000Y-69230000D02*
X46560000Y-64730000D01*
X46560000Y-69230000D02*
X48130000Y-69230000D01*
X52500000Y-64730000D02*
X50930000Y-64730000D01*
X89325000Y-132080000D02*
X89325000Y-129880000D01*
X96095000Y-132080000D02*
X96095000Y-134280000D01*
X96095000Y-132080000D02*
X96095000Y-128480000D01*
X89325000Y-132080000D02*
X89325000Y-134280000D01*
X60270000Y-138960000D02*
X60270000Y-135360000D01*
X55819999Y-137160000D02*
G75*
G03*
X60258478Y-138998478I2600001J0D01*
G01*
X60258478Y-135321522D02*
G75*
G03*
X55820000Y-137160000I-1838478J-1838478D01*
G01*
X44990000Y-142140000D02*
X44990000Y-144880000D01*
X51530000Y-144880000D02*
X51530000Y-142140000D01*
X52300000Y-143510000D02*
X51530000Y-143510000D01*
X51530000Y-142140000D02*
X44990000Y-142140000D01*
X44990000Y-144880000D02*
X51530000Y-144880000D01*
X44220000Y-143510000D02*
X44990000Y-143510000D01*
X111650000Y-39300000D02*
X111650000Y-36900000D01*
X106750000Y-36900000D02*
X106750000Y-39300000D01*
X106750000Y-39300000D02*
X111650000Y-39300000D01*
X111650000Y-36900000D02*
X106750000Y-36900000D01*
X82510000Y-32290000D02*
X82510000Y-36931000D01*
X85780000Y-32290000D02*
X85780000Y-33800000D01*
X82510000Y-33800000D02*
X92750000Y-33800000D01*
X82510000Y-36931000D02*
X92750000Y-36931000D01*
X89481000Y-32290000D02*
X89481000Y-33800000D01*
X82510000Y-32290000D02*
X92750000Y-32290000D01*
X92750000Y-32290000D02*
X92750000Y-36931000D01*
X36250000Y-135360000D02*
X36250000Y-138960000D01*
X36261522Y-138998478D02*
G75*
G03*
X40700000Y-137160000I1838478J1838478D01*
G01*
X40700001Y-137160000D02*
G75*
G03*
X36261522Y-135321522I-2600001J0D01*
G01*
X52300000Y-135890000D02*
X51530000Y-135890000D01*
X44220000Y-135890000D02*
X44990000Y-135890000D01*
X51530000Y-134520000D02*
X44990000Y-134520000D01*
X44990000Y-134520000D02*
X44990000Y-137260000D01*
X44990000Y-137260000D02*
X51530000Y-137260000D01*
X51530000Y-137260000D02*
X51530000Y-134520000D01*
X96340000Y-188090000D02*
X106840000Y-188090000D01*
X106840000Y-167530000D02*
X96340000Y-167530000D01*
X102590000Y-188030000D02*
X103840000Y-188030000D01*
X103840000Y-167590000D02*
X99340000Y-167590000D01*
X106840000Y-188090000D02*
X106840000Y-167530000D01*
X99340000Y-167590000D02*
X99340000Y-188030000D01*
X103840000Y-188030000D02*
X103840000Y-167590000D01*
X99340000Y-188030000D02*
X100590000Y-188030000D01*
X96340000Y-167530000D02*
X96340000Y-188090000D01*
X102590000Y-188030000D02*
G75*
G03*
X100590000Y-188030000I-1000000J0D01*
G01*
X51595000Y-150820000D02*
X55085000Y-150820000D01*
X51595000Y-156540000D02*
X52665000Y-156540000D01*
X51595000Y-159060000D02*
X51595000Y-150820000D01*
X55085000Y-159060000D02*
X55085000Y-150820000D01*
X51595000Y-153339000D02*
X53175000Y-153339000D01*
X54255000Y-153339000D02*
X55085000Y-153339000D01*
X51595000Y-159060000D02*
X55085000Y-159060000D01*
X54765000Y-156540000D02*
X55085000Y-156540000D01*
X59540000Y-159170000D02*
X57300000Y-159170000D01*
X59540000Y-163410000D02*
X59540000Y-159170000D01*
X59540000Y-160010000D02*
X57300000Y-160010000D01*
X57300000Y-159170000D02*
X57300000Y-163410000D01*
X57300000Y-163410000D02*
X59540000Y-163410000D01*
X58420000Y-164060000D02*
X58420000Y-163410000D01*
X59540000Y-159770000D02*
X57300000Y-159770000D01*
X58420000Y-158520000D02*
X58420000Y-159170000D01*
X59540000Y-159890000D02*
X57300000Y-159890000D01*
X44220000Y-147320000D02*
X44990000Y-147320000D01*
X51530000Y-148690000D02*
X51530000Y-145950000D01*
X44990000Y-145950000D02*
X44990000Y-148690000D01*
X51530000Y-145950000D02*
X44990000Y-145950000D01*
X52300000Y-147320000D02*
X51530000Y-147320000D01*
X44990000Y-148690000D02*
X51530000Y-148690000D01*
X70560000Y-163050000D02*
X71870000Y-163050000D01*
X62750000Y-139570000D02*
X71870000Y-139570000D01*
X71870000Y-190630000D02*
X62750000Y-190630000D01*
X71870000Y-167150000D02*
X70560000Y-167150000D01*
X73260000Y-184920000D02*
X72260000Y-185420000D01*
X64060000Y-140870000D02*
X70560000Y-140870000D01*
X71870000Y-139570000D02*
X71870000Y-190630000D01*
X72260000Y-185420000D02*
X73260000Y-185920000D01*
X64060000Y-189330000D02*
X64060000Y-140870000D01*
X70560000Y-189330000D02*
X64060000Y-189330000D01*
X73260000Y-185920000D02*
X73260000Y-184920000D01*
X70560000Y-163050000D02*
X70560000Y-163050000D01*
X70560000Y-167150000D02*
X70560000Y-189330000D01*
X62750000Y-190630000D02*
X62750000Y-139570000D01*
X70560000Y-140870000D02*
X70560000Y-163050000D01*
X82510000Y-53441000D02*
X92750000Y-53441000D01*
X89481000Y-48800000D02*
X89481000Y-50310000D01*
X82510000Y-48800000D02*
X92750000Y-48800000D01*
X82510000Y-50310000D02*
X92750000Y-50310000D01*
X92750000Y-48800000D02*
X92750000Y-53441000D01*
X85780000Y-48800000D02*
X85780000Y-50310000D01*
X82510000Y-48800000D02*
X82510000Y-53441000D01*
X50180000Y-41070000D02*
X45680000Y-41070000D01*
X50180000Y-35130000D02*
X50180000Y-36700000D01*
X50180000Y-35130000D02*
X45680000Y-35130000D01*
X45680000Y-35130000D02*
X45680000Y-36700000D01*
X66080000Y-35130000D02*
X61580000Y-35130000D01*
X50180000Y-41070000D02*
X50180000Y-39500000D01*
X61580000Y-40600000D02*
X50180000Y-40600000D01*
X66080000Y-36700000D02*
X66080000Y-35130000D01*
X66080000Y-39500000D02*
X66080000Y-41070000D01*
X61580000Y-41070000D02*
X66080000Y-41070000D01*
X61580000Y-41070000D02*
X61580000Y-39500000D01*
X61580000Y-35130000D02*
X61580000Y-36700000D01*
X45680000Y-41070000D02*
X45680000Y-39500000D01*
X61580000Y-35600000D02*
X50180000Y-35600000D01*
X30480000Y-49530000D02*
X40640000Y-49530000D01*
X40640000Y-41910000D02*
X30480000Y-41910000D01*
X30480000Y-41910000D02*
X30480000Y-49530000D01*
X40640000Y-48260000D02*
X30480000Y-48260000D01*
X40640000Y-49530000D02*
X40640000Y-41910000D01*
X99089000Y-39541000D02*
X95468000Y-39541000D01*
X105053000Y-39941000D02*
X101571000Y-39941000D01*
X99089000Y-40581000D02*
X95913000Y-40581000D01*
X99089000Y-40901000D02*
X96109000Y-40901000D01*
X99089000Y-41661000D02*
X96729000Y-41661000D01*
X99089000Y-41021000D02*
X96192000Y-41021000D01*
X99089000Y-39661000D02*
X95506000Y-39661000D01*
X105398000Y-38420000D02*
X95262000Y-38420000D01*
X104188000Y-41381000D02*
X101571000Y-41381000D01*
X99089000Y-41741000D02*
X96810000Y-41741000D01*
X99089000Y-39501000D02*
X95456000Y-39501000D01*
X103970000Y-41621000D02*
X101571000Y-41621000D01*
X105020000Y-40021000D02*
X101571000Y-40021000D01*
X105037000Y-39981000D02*
X101571000Y-39981000D01*
X99089000Y-41501000D02*
X96577000Y-41501000D01*
X105380000Y-38620000D02*
X95280000Y-38620000D01*
X103160000Y-42301000D02*
X97500000Y-42301000D01*
X105141000Y-39701000D02*
X101571000Y-39701000D01*
X104410000Y-41101000D02*
X101571000Y-41101000D01*
X105375000Y-38660000D02*
X95285000Y-38660000D01*
X101560000Y-43021000D02*
X99100000Y-43021000D01*
X105407000Y-38260000D02*
X95253000Y-38260000D01*
X99089000Y-41621000D02*
X96690000Y-41621000D01*
X99089000Y-39741000D02*
X95533000Y-39741000D01*
X104524000Y-40941000D02*
X101571000Y-40941000D01*
X104551000Y-40901000D02*
X101571000Y-40901000D01*
X105192000Y-39541000D02*
X101571000Y-39541000D01*
X103631000Y-41941000D02*
X97029000Y-41941000D01*
X99089000Y-41341000D02*
X96438000Y-41341000D01*
X105410000Y-38100000D02*
X95250000Y-38100000D01*
X102909000Y-42461000D02*
X97751000Y-42461000D01*
X99089000Y-39701000D02*
X95519000Y-39701000D01*
X104725000Y-40621000D02*
X101571000Y-40621000D01*
X105365000Y-38740000D02*
X95295000Y-38740000D01*
X103330000Y-42181000D02*
X97330000Y-42181000D01*
X99089000Y-41781000D02*
X96852000Y-41781000D01*
X99089000Y-40781000D02*
X96032000Y-40781000D01*
X104577000Y-40861000D02*
X101571000Y-40861000D01*
X99089000Y-40701000D02*
X95983000Y-40701000D01*
X105277000Y-39221000D02*
X95383000Y-39221000D01*
X102274000Y-42781000D02*
X98386000Y-42781000D01*
X104083000Y-41501000D02*
X101571000Y-41501000D01*
X104813000Y-40461000D02*
X101571000Y-40461000D01*
X99089000Y-41581000D02*
X96651000Y-41581000D01*
X99089000Y-39901000D02*
X95592000Y-39901000D01*
X99089000Y-41181000D02*
X96310000Y-41181000D01*
X99089000Y-40061000D02*
X95656000Y-40061000D01*
X105154000Y-39661000D02*
X101571000Y-39661000D01*
X99089000Y-39981000D02*
X95623000Y-39981000D01*
X104009000Y-41581000D02*
X101571000Y-41581000D01*
X105320000Y-39021000D02*
X95340000Y-39021000D01*
X99089000Y-40301000D02*
X95766000Y-40301000D01*
X102455000Y-42701000D02*
X98205000Y-42701000D01*
X99089000Y-39861000D02*
X95576000Y-39861000D01*
X105400000Y-38380000D02*
X95260000Y-38380000D01*
X99089000Y-40261000D02*
X95746000Y-40261000D01*
X99089000Y-40021000D02*
X95640000Y-40021000D01*
X99089000Y-40381000D02*
X95805000Y-40381000D01*
X99089000Y-40421000D02*
X95826000Y-40421000D01*
X99089000Y-40821000D02*
X96057000Y-40821000D01*
X105370000Y-38700000D02*
X95290000Y-38700000D01*
X103931000Y-41661000D02*
X101571000Y-41661000D01*
X99089000Y-40141000D02*
X95691000Y-40141000D01*
X104046000Y-41541000D02*
X101571000Y-41541000D01*
X99089000Y-39781000D02*
X95547000Y-39781000D01*
X105409000Y-38180000D02*
X95251000Y-38180000D01*
X99089000Y-40941000D02*
X96136000Y-40941000D01*
X99089000Y-40501000D02*
X95868000Y-40501000D01*
X105068000Y-39901000D02*
X101571000Y-39901000D01*
X105113000Y-39781000D02*
X101571000Y-39781000D01*
X103850000Y-41741000D02*
X101571000Y-41741000D01*
X105304000Y-39101000D02*
X95356000Y-39101000D01*
X99089000Y-41381000D02*
X96472000Y-41381000D01*
X103766000Y-41821000D02*
X96894000Y-41821000D01*
X99089000Y-39821000D02*
X95562000Y-39821000D01*
X99089000Y-40981000D02*
X96164000Y-40981000D01*
X99089000Y-39421000D02*
X95433000Y-39421000D01*
X105408000Y-38220000D02*
X95252000Y-38220000D01*
X105295000Y-39141000D02*
X95365000Y-39141000D01*
X105403000Y-38340000D02*
X95257000Y-38340000D01*
X104496000Y-40981000D02*
X101571000Y-40981000D01*
X104701000Y-40661000D02*
X101571000Y-40661000D01*
X104653000Y-40741000D02*
X101571000Y-40741000D01*
X101192000Y-43101000D02*
X99468000Y-43101000D01*
X103808000Y-41781000D02*
X101571000Y-41781000D01*
X99089000Y-40461000D02*
X95847000Y-40461000D01*
X103039000Y-42381000D02*
X97621000Y-42381000D01*
X105341000Y-38901000D02*
X95319000Y-38901000D01*
X99089000Y-41461000D02*
X96541000Y-41461000D01*
X104119000Y-41461000D02*
X101571000Y-41461000D01*
X104987000Y-40101000D02*
X101571000Y-40101000D01*
X99089000Y-41541000D02*
X96614000Y-41541000D01*
X99089000Y-40101000D02*
X95673000Y-40101000D01*
X104914000Y-40261000D02*
X101571000Y-40261000D01*
X104603000Y-40821000D02*
X101571000Y-40821000D01*
X104933000Y-40221000D02*
X101571000Y-40221000D01*
X99089000Y-39941000D02*
X95607000Y-39941000D01*
X99089000Y-41421000D02*
X96506000Y-41421000D01*
X99089000Y-39581000D02*
X95480000Y-39581000D01*
X105334000Y-38941000D02*
X95326000Y-38941000D01*
X99089000Y-41221000D02*
X96341000Y-41221000D01*
X99089000Y-40621000D02*
X95935000Y-40621000D01*
X103100000Y-42341000D02*
X97560000Y-42341000D01*
X101392000Y-43061000D02*
X99268000Y-43061000D01*
X99089000Y-41141000D02*
X96280000Y-41141000D01*
X99089000Y-39341000D02*
X95412000Y-39341000D01*
X105204000Y-39501000D02*
X101571000Y-39501000D01*
X102619000Y-42621000D02*
X98041000Y-42621000D01*
X102840000Y-42501000D02*
X97820000Y-42501000D01*
X99089000Y-39621000D02*
X95493000Y-39621000D01*
X99089000Y-40741000D02*
X96007000Y-40741000D01*
X105405000Y-38300000D02*
X95255000Y-38300000D01*
X99089000Y-40861000D02*
X96083000Y-40861000D01*
X102176000Y-42821000D02*
X98484000Y-42821000D01*
X100929000Y-43141000D02*
X99731000Y-43141000D01*
X103722000Y-41861000D02*
X96938000Y-41861000D01*
X103677000Y-41901000D02*
X96983000Y-41901000D01*
X99089000Y-40221000D02*
X95727000Y-40221000D01*
X103891000Y-41701000D02*
X101571000Y-41701000D01*
X105348000Y-38861000D02*
X95312000Y-38861000D01*
X103584000Y-41981000D02*
X97076000Y-41981000D01*
X103205000Y-32580354D02*
X103205000Y-33580354D01*
X104855000Y-40381000D02*
X101571000Y-40381000D01*
X103219000Y-42261000D02*
X97441000Y-42261000D01*
X104222000Y-41341000D02*
X101571000Y-41341000D01*
X104350000Y-41181000D02*
X101571000Y-41181000D01*
X102367000Y-42741000D02*
X98293000Y-42741000D01*
X104834000Y-40421000D02*
X101571000Y-40421000D01*
X105392000Y-38500000D02*
X95268000Y-38500000D01*
X99089000Y-41701000D02*
X96769000Y-41701000D01*
X104628000Y-40781000D02*
X101571000Y-40781000D01*
X105388000Y-38540000D02*
X95272000Y-38540000D01*
X104154000Y-41421000D02*
X101571000Y-41421000D01*
X101960000Y-42901000D02*
X98700000Y-42901000D01*
X105258000Y-39301000D02*
X95402000Y-39301000D01*
X103275000Y-42221000D02*
X97385000Y-42221000D01*
X102975000Y-42421000D02*
X97685000Y-42421000D01*
X104677000Y-40701000D02*
X101571000Y-40701000D01*
X105004000Y-40061000D02*
X101571000Y-40061000D01*
X99089000Y-40541000D02*
X95890000Y-40541000D01*
X104770000Y-40541000D02*
X101571000Y-40541000D01*
X105098000Y-39821000D02*
X101571000Y-39821000D01*
X105248000Y-39341000D02*
X101571000Y-39341000D01*
X99089000Y-41301000D02*
X96405000Y-41301000D01*
X105410000Y-38060000D02*
X95250000Y-38060000D01*
X103436000Y-42101000D02*
X97224000Y-42101000D01*
X104969000Y-40141000D02*
X101571000Y-40141000D01*
X102769000Y-42541000D02*
X97891000Y-42541000D01*
X104747000Y-40581000D02*
X101571000Y-40581000D01*
X104319000Y-41221000D02*
X101571000Y-41221000D01*
X105354000Y-38821000D02*
X95306000Y-38821000D01*
X105084000Y-39861000D02*
X101571000Y-39861000D01*
X102539000Y-42661000D02*
X98121000Y-42661000D01*
X105268000Y-39261000D02*
X95392000Y-39261000D01*
X105227000Y-39421000D02*
X101571000Y-39421000D01*
X103705000Y-33080354D02*
X102705000Y-33080354D01*
X105312000Y-39061000D02*
X95348000Y-39061000D01*
X102695000Y-42581000D02*
X97965000Y-42581000D01*
X105167000Y-39621000D02*
X101571000Y-39621000D01*
X103536000Y-42021000D02*
X97124000Y-42021000D01*
X99089000Y-39461000D02*
X95445000Y-39461000D01*
X104875000Y-40341000D02*
X101571000Y-40341000D01*
X105384000Y-38580000D02*
X95276000Y-38580000D01*
X104792000Y-40501000D02*
X101571000Y-40501000D01*
X99089000Y-40341000D02*
X95785000Y-40341000D01*
X105360000Y-38781000D02*
X95300000Y-38781000D01*
X105180000Y-39581000D02*
X101571000Y-39581000D01*
X105327000Y-38981000D02*
X95333000Y-38981000D01*
X99089000Y-41061000D02*
X96220000Y-41061000D01*
X104380000Y-41141000D02*
X101571000Y-41141000D01*
X104255000Y-41301000D02*
X101571000Y-41301000D01*
X101840000Y-42941000D02*
X98820000Y-42941000D01*
X101708000Y-42981000D02*
X98952000Y-42981000D01*
X104951000Y-40181000D02*
X101571000Y-40181000D01*
X99089000Y-39381000D02*
X95423000Y-39381000D01*
X103384000Y-42141000D02*
X97276000Y-42141000D01*
X99089000Y-40181000D02*
X95709000Y-40181000D01*
X105215000Y-39461000D02*
X101571000Y-39461000D01*
X104894000Y-40301000D02*
X101571000Y-40301000D01*
X99089000Y-40661000D02*
X95959000Y-40661000D01*
X105395000Y-38460000D02*
X95265000Y-38460000D01*
X99089000Y-41261000D02*
X96373000Y-41261000D01*
X104440000Y-41061000D02*
X101571000Y-41061000D01*
X104468000Y-41021000D02*
X101571000Y-41021000D01*
X103486000Y-42061000D02*
X97174000Y-42061000D01*
X105410000Y-38140000D02*
X95250000Y-38140000D01*
X104287000Y-41261000D02*
X101571000Y-41261000D01*
X99089000Y-41101000D02*
X96250000Y-41101000D01*
X105286000Y-39181000D02*
X95374000Y-39181000D01*
X105127000Y-39741000D02*
X101571000Y-39741000D01*
X102072000Y-42861000D02*
X98588000Y-42861000D01*
X105237000Y-39381000D02*
X101571000Y-39381000D01*
X105450000Y-38060000D02*
G75*
G03*
X105450000Y-38060000I-5120000J0D01*
G01*
X111890000Y-143505000D02*
X111890000Y-158805000D01*
X109230000Y-143505000D02*
X109230000Y-158805000D01*
X109230000Y-142235000D02*
X109230000Y-140905000D01*
X109230000Y-140905000D02*
X110560000Y-140905000D01*
X109230000Y-158805000D02*
X111890000Y-158805000D01*
X109230000Y-143505000D02*
X111890000Y-143505000D01*
X104380000Y-57651000D02*
X101571000Y-57651000D01*
X105334000Y-55451000D02*
X95326000Y-55451000D01*
X99089000Y-56811000D02*
X95766000Y-56811000D01*
X102072000Y-59371000D02*
X98588000Y-59371000D01*
X101708000Y-59491000D02*
X98952000Y-59491000D01*
X99089000Y-57651000D02*
X96280000Y-57651000D01*
X99089000Y-57011000D02*
X95868000Y-57011000D01*
X105098000Y-56331000D02*
X101571000Y-56331000D01*
X105360000Y-55291000D02*
X95300000Y-55291000D01*
X105384000Y-55090000D02*
X95276000Y-55090000D01*
X105380000Y-55130000D02*
X95280000Y-55130000D01*
X99089000Y-57611000D02*
X96250000Y-57611000D01*
X103536000Y-58531000D02*
X97124000Y-58531000D01*
X99089000Y-57691000D02*
X96310000Y-57691000D01*
X99089000Y-57931000D02*
X96506000Y-57931000D01*
X103100000Y-58851000D02*
X97560000Y-58851000D01*
X105354000Y-55331000D02*
X95306000Y-55331000D01*
X99089000Y-56131000D02*
X95493000Y-56131000D01*
X105154000Y-56171000D02*
X101571000Y-56171000D01*
X99089000Y-58011000D02*
X96577000Y-58011000D01*
X99089000Y-58051000D02*
X96614000Y-58051000D01*
X105204000Y-56011000D02*
X101571000Y-56011000D01*
X99089000Y-56531000D02*
X95640000Y-56531000D01*
X103384000Y-58651000D02*
X97276000Y-58651000D01*
X105392000Y-55010000D02*
X95268000Y-55010000D01*
X104628000Y-57291000D02*
X101571000Y-57291000D01*
X102975000Y-58931000D02*
X97685000Y-58931000D01*
X105304000Y-55611000D02*
X95356000Y-55611000D01*
X104551000Y-57411000D02*
X101571000Y-57411000D01*
X105348000Y-55371000D02*
X95312000Y-55371000D01*
X104603000Y-57331000D02*
X101571000Y-57331000D01*
X105004000Y-56571000D02*
X101571000Y-56571000D01*
X105020000Y-56531000D02*
X101571000Y-56531000D01*
X104834000Y-56931000D02*
X101571000Y-56931000D01*
X99089000Y-56331000D02*
X95562000Y-56331000D01*
X103486000Y-58571000D02*
X97174000Y-58571000D01*
X103808000Y-58291000D02*
X101571000Y-58291000D01*
X102769000Y-59051000D02*
X97891000Y-59051000D01*
X105180000Y-56091000D02*
X101571000Y-56091000D01*
X104933000Y-56731000D02*
X101571000Y-56731000D01*
X104792000Y-57011000D02*
X101571000Y-57011000D01*
X104188000Y-57891000D02*
X101571000Y-57891000D01*
X104701000Y-57171000D02*
X101571000Y-57171000D01*
X99089000Y-57811000D02*
X96405000Y-57811000D01*
X104319000Y-57731000D02*
X101571000Y-57731000D01*
X104222000Y-57851000D02*
X101571000Y-57851000D01*
X102840000Y-59011000D02*
X97820000Y-59011000D01*
X105215000Y-55971000D02*
X101571000Y-55971000D01*
X105408000Y-54730000D02*
X95252000Y-54730000D01*
X105258000Y-55811000D02*
X95402000Y-55811000D01*
X99089000Y-57891000D02*
X96472000Y-57891000D01*
X105410000Y-54610000D02*
X95250000Y-54610000D01*
X104855000Y-56891000D02*
X101571000Y-56891000D01*
X103631000Y-58451000D02*
X97029000Y-58451000D01*
X103205000Y-49090354D02*
X103205000Y-50090354D01*
X99089000Y-56691000D02*
X95709000Y-56691000D01*
X104969000Y-56651000D02*
X101571000Y-56651000D01*
X105167000Y-56131000D02*
X101571000Y-56131000D01*
X99089000Y-57331000D02*
X96057000Y-57331000D01*
X102909000Y-58971000D02*
X97751000Y-58971000D01*
X99089000Y-56491000D02*
X95623000Y-56491000D01*
X104577000Y-57371000D02*
X101571000Y-57371000D01*
X105400000Y-54890000D02*
X95260000Y-54890000D01*
X105405000Y-54810000D02*
X95255000Y-54810000D01*
X101960000Y-59411000D02*
X98700000Y-59411000D01*
X104894000Y-56811000D02*
X101571000Y-56811000D01*
X103039000Y-58891000D02*
X97621000Y-58891000D01*
X105365000Y-55250000D02*
X95295000Y-55250000D01*
X99089000Y-57291000D02*
X96032000Y-57291000D01*
X105037000Y-56491000D02*
X101571000Y-56491000D01*
X99089000Y-57571000D02*
X96220000Y-57571000D01*
X99089000Y-57051000D02*
X95890000Y-57051000D01*
X99089000Y-56051000D02*
X95468000Y-56051000D01*
X104496000Y-57491000D02*
X101571000Y-57491000D01*
X105398000Y-54930000D02*
X95262000Y-54930000D01*
X99089000Y-56971000D02*
X95847000Y-56971000D01*
X104440000Y-57571000D02*
X101571000Y-57571000D01*
X105370000Y-55210000D02*
X95290000Y-55210000D01*
X99089000Y-57411000D02*
X96109000Y-57411000D01*
X99089000Y-57131000D02*
X95935000Y-57131000D01*
X105410000Y-54650000D02*
X95250000Y-54650000D01*
X99089000Y-57251000D02*
X96007000Y-57251000D01*
X105053000Y-56451000D02*
X101571000Y-56451000D01*
X105127000Y-56251000D02*
X101571000Y-56251000D01*
X99089000Y-56891000D02*
X95805000Y-56891000D01*
X105141000Y-56211000D02*
X101571000Y-56211000D01*
X99089000Y-56571000D02*
X95656000Y-56571000D01*
X102539000Y-59171000D02*
X98121000Y-59171000D01*
X102274000Y-59291000D02*
X98386000Y-59291000D01*
X99089000Y-56011000D02*
X95456000Y-56011000D01*
X99089000Y-55891000D02*
X95423000Y-55891000D01*
X101392000Y-59571000D02*
X99268000Y-59571000D01*
X99089000Y-58211000D02*
X96769000Y-58211000D01*
X105407000Y-54770000D02*
X95253000Y-54770000D01*
X99089000Y-56731000D02*
X95727000Y-56731000D01*
X105113000Y-56291000D02*
X101571000Y-56291000D01*
X105227000Y-55931000D02*
X101571000Y-55931000D01*
X99089000Y-56211000D02*
X95519000Y-56211000D01*
X99089000Y-58251000D02*
X96810000Y-58251000D01*
X105403000Y-54850000D02*
X95257000Y-54850000D01*
X99089000Y-55931000D02*
X95433000Y-55931000D01*
X105084000Y-56371000D02*
X101571000Y-56371000D01*
X103219000Y-58771000D02*
X97441000Y-58771000D01*
X101840000Y-59451000D02*
X98820000Y-59451000D01*
X103722000Y-58371000D02*
X96938000Y-58371000D01*
X103766000Y-58331000D02*
X96894000Y-58331000D01*
X104083000Y-58011000D02*
X101571000Y-58011000D01*
X99089000Y-55971000D02*
X95445000Y-55971000D01*
X102695000Y-59091000D02*
X97965000Y-59091000D01*
X99089000Y-57771000D02*
X96373000Y-57771000D01*
X104255000Y-57811000D02*
X101571000Y-57811000D01*
X105295000Y-55651000D02*
X95365000Y-55651000D01*
X102367000Y-59251000D02*
X98293000Y-59251000D01*
X99089000Y-56611000D02*
X95673000Y-56611000D01*
X103970000Y-58131000D02*
X101571000Y-58131000D01*
X102455000Y-59211000D02*
X98205000Y-59211000D01*
X99089000Y-57971000D02*
X96541000Y-57971000D01*
X105068000Y-56411000D02*
X101571000Y-56411000D01*
X104468000Y-57531000D02*
X101571000Y-57531000D01*
X104410000Y-57611000D02*
X101571000Y-57611000D01*
X99089000Y-57731000D02*
X96341000Y-57731000D01*
X102176000Y-59331000D02*
X98484000Y-59331000D01*
X105409000Y-54690000D02*
X95251000Y-54690000D01*
X104677000Y-57211000D02*
X101571000Y-57211000D01*
X99089000Y-58131000D02*
X96690000Y-58131000D01*
X105192000Y-56051000D02*
X101571000Y-56051000D01*
X99089000Y-57171000D02*
X95959000Y-57171000D01*
X100929000Y-59651000D02*
X99731000Y-59651000D01*
X103330000Y-58691000D02*
X97330000Y-58691000D01*
X101192000Y-59611000D02*
X99468000Y-59611000D01*
X105312000Y-55571000D02*
X95348000Y-55571000D01*
X99089000Y-56091000D02*
X95480000Y-56091000D01*
X103891000Y-58211000D02*
X101571000Y-58211000D01*
X104119000Y-57971000D02*
X101571000Y-57971000D01*
X105341000Y-55411000D02*
X95319000Y-55411000D01*
X99089000Y-57091000D02*
X95913000Y-57091000D01*
X99089000Y-58171000D02*
X96729000Y-58171000D01*
X103275000Y-58731000D02*
X97385000Y-58731000D01*
X105375000Y-55170000D02*
X95285000Y-55170000D01*
X99089000Y-57851000D02*
X96438000Y-57851000D01*
X104747000Y-57091000D02*
X101571000Y-57091000D01*
X105286000Y-55691000D02*
X95374000Y-55691000D01*
X105395000Y-54970000D02*
X95265000Y-54970000D01*
X99089000Y-58291000D02*
X96852000Y-58291000D01*
X105327000Y-55491000D02*
X95333000Y-55491000D01*
X99089000Y-56931000D02*
X95826000Y-56931000D01*
X105388000Y-55050000D02*
X95272000Y-55050000D01*
X104287000Y-57771000D02*
X101571000Y-57771000D01*
X105410000Y-54570000D02*
X95250000Y-54570000D01*
X105268000Y-55771000D02*
X95392000Y-55771000D01*
X105320000Y-55531000D02*
X95340000Y-55531000D01*
X104009000Y-58091000D02*
X101571000Y-58091000D01*
X99089000Y-56371000D02*
X95576000Y-56371000D01*
X99089000Y-57491000D02*
X96164000Y-57491000D01*
X99089000Y-56171000D02*
X95506000Y-56171000D01*
X103436000Y-58611000D02*
X97224000Y-58611000D01*
X99089000Y-58091000D02*
X96651000Y-58091000D01*
X103931000Y-58171000D02*
X101571000Y-58171000D01*
X99089000Y-55851000D02*
X95412000Y-55851000D01*
X102619000Y-59131000D02*
X98041000Y-59131000D01*
X104987000Y-56611000D02*
X101571000Y-56611000D01*
X104770000Y-57051000D02*
X101571000Y-57051000D01*
X104813000Y-56971000D02*
X101571000Y-56971000D01*
X104951000Y-56691000D02*
X101571000Y-56691000D01*
X105248000Y-55851000D02*
X101571000Y-55851000D01*
X99089000Y-56771000D02*
X95746000Y-56771000D01*
X105277000Y-55731000D02*
X95383000Y-55731000D01*
X103677000Y-58411000D02*
X96983000Y-58411000D01*
X99089000Y-57531000D02*
X96192000Y-57531000D01*
X99089000Y-56851000D02*
X95785000Y-56851000D01*
X103850000Y-58251000D02*
X101571000Y-58251000D01*
X99089000Y-57371000D02*
X96083000Y-57371000D01*
X103584000Y-58491000D02*
X97076000Y-58491000D01*
X104524000Y-57451000D02*
X101571000Y-57451000D01*
X104914000Y-56771000D02*
X101571000Y-56771000D01*
X104653000Y-57251000D02*
X101571000Y-57251000D01*
X99089000Y-57211000D02*
X95983000Y-57211000D01*
X104725000Y-57131000D02*
X101571000Y-57131000D01*
X104154000Y-57931000D02*
X101571000Y-57931000D01*
X99089000Y-56291000D02*
X95547000Y-56291000D01*
X99089000Y-57451000D02*
X96136000Y-57451000D01*
X99089000Y-56651000D02*
X95691000Y-56651000D01*
X104875000Y-56851000D02*
X101571000Y-56851000D01*
X101560000Y-59531000D02*
X99100000Y-59531000D01*
X104046000Y-58051000D02*
X101571000Y-58051000D01*
X103160000Y-58811000D02*
X97500000Y-58811000D01*
X99089000Y-56411000D02*
X95592000Y-56411000D01*
X99089000Y-56451000D02*
X95607000Y-56451000D01*
X105237000Y-55891000D02*
X101571000Y-55891000D01*
X99089000Y-56251000D02*
X95533000Y-56251000D01*
X103705000Y-49590354D02*
X102705000Y-49590354D01*
X104350000Y-57691000D02*
X101571000Y-57691000D01*
X105450000Y-54570000D02*
G75*
G03*
X105450000Y-54570000I-5120000J0D01*
G01*
X86210000Y-55510000D02*
X86210000Y-58750000D01*
X86210000Y-58750000D02*
X86145000Y-58750000D01*
X84035000Y-58750000D02*
X83970000Y-58750000D01*
X83970000Y-55510000D02*
X83970000Y-58750000D01*
X86210000Y-55510000D02*
X86145000Y-55510000D01*
X84035000Y-55510000D02*
X83970000Y-55510000D01*
X49530000Y-181840000D02*
X49530000Y-181070000D01*
X48160000Y-174530000D02*
X48160000Y-181070000D01*
X50900000Y-181070000D02*
X50900000Y-174530000D01*
X48160000Y-181070000D02*
X50900000Y-181070000D01*
X49530000Y-173760000D02*
X49530000Y-174530000D01*
X50900000Y-174530000D02*
X48160000Y-174530000D01*
X64195000Y-80070000D02*
X64195000Y-77410000D01*
X64195000Y-77410000D02*
X97275000Y-77410000D01*
X61595000Y-80070000D02*
X61595000Y-78740000D01*
X62925000Y-80070000D02*
X61595000Y-80070000D01*
X97275000Y-80070000D02*
X97275000Y-77410000D01*
X64195000Y-80070000D02*
X97275000Y-80070000D01*
X52300000Y-132180000D02*
X51530000Y-132180000D01*
X51530000Y-130810000D02*
X44990000Y-130810000D01*
X44220000Y-132180000D02*
X44990000Y-132180000D01*
X44990000Y-130810000D02*
X44990000Y-133550000D01*
X51530000Y-133550000D02*
X51530000Y-130810000D01*
X44990000Y-133550000D02*
X51530000Y-133550000D01*
X58070000Y-111760000D02*
X58070000Y-93980000D01*
X58832000Y-97790000D02*
X62388000Y-97790000D01*
X56800000Y-114870000D02*
X56800000Y-90870000D01*
X103790000Y-93980000D02*
X107600000Y-93980000D01*
X60864000Y-100330000D02*
X58832000Y-100330000D01*
X58800000Y-116870000D02*
X106300000Y-116870000D01*
X60864000Y-107950000D02*
X60864000Y-105410000D01*
X107600000Y-93980000D02*
X107600000Y-96520000D01*
X107600000Y-109220000D02*
X107600000Y-111760000D01*
X102300000Y-106870000D02*
X108300000Y-106870000D01*
X58832000Y-95250000D02*
X62388000Y-95250000D01*
X63150000Y-111760000D02*
X58070000Y-111760000D01*
X107600000Y-111760000D02*
X103790000Y-111760000D01*
X106300000Y-88870000D02*
X58800000Y-88870000D01*
X60864000Y-105410000D02*
X58832000Y-105410000D01*
X63150000Y-93980000D02*
X63150000Y-111760000D01*
X63800000Y-95370000D02*
X81800000Y-95370000D01*
X108300000Y-114870000D02*
X108300000Y-90870000D01*
X60864000Y-102870000D02*
X60864000Y-100330000D01*
X58070000Y-93980000D02*
X63150000Y-93980000D01*
X103790000Y-96520000D02*
X103790000Y-93980000D01*
X62388000Y-110490000D02*
X58832000Y-110490000D01*
X58832000Y-107950000D02*
X60864000Y-107950000D01*
X102300000Y-98870000D02*
X108300000Y-98870000D01*
X103790000Y-111760000D02*
X103790000Y-109220000D01*
X63800000Y-110370000D02*
X63800000Y-95370000D01*
X81800000Y-110370000D02*
X63800000Y-110370000D01*
X58832000Y-102870000D02*
X60864000Y-102870000D01*
X81800000Y-95370000D02*
X81800000Y-110370000D01*
X58832000Y-100330000D02*
X58832000Y-95250000D01*
X58832000Y-105410000D02*
X58832000Y-102870000D01*
X103790000Y-109220000D02*
X107600000Y-109220000D01*
X102300000Y-106870000D02*
X102300000Y-98870000D01*
X107600000Y-96520000D02*
X103790000Y-96520000D01*
X58832000Y-110490000D02*
X58832000Y-107950000D01*
X58800000Y-88870000D02*
G75*
G03*
X56800000Y-90870000I0J-2000000D01*
G01*
X56800000Y-114870000D02*
G75*
G03*
X58800000Y-116870000I1999999J-1D01*
G01*
X106300000Y-116870000D02*
G75*
G03*
X108300000Y-114870000I1J1999999D01*
G01*
X108300000Y-90870000D02*
G75*
G03*
X106300000Y-88870000I-2000000J0D01*
G01*
D13*
X105995000Y-95250000D02*
G75*
G03*
X105995000Y-95250000I-300000J0D01*
G01*
D12*
X107800000Y-91170000D02*
G75*
G03*
X107800000Y-91170000I-1500000J0D01*
G01*
X60300000Y-114570000D02*
G75*
G03*
X60300000Y-114570000I-1500000J0D01*
G01*
D14*
X80060000Y-107950000D02*
G75*
G03*
X80060000Y-107950000I-400000J0D01*
G01*
D13*
X105995000Y-110490000D02*
G75*
G03*
X105995000Y-110490000I-300000J0D01*
G01*
D12*
X60300000Y-91170000D02*
G75*
G03*
X60300000Y-91170000I-1500000J0D01*
G01*
X107800000Y-114570000D02*
G75*
G03*
X107800000Y-114570000I-1500000J0D01*
G01*
X96340000Y-140860000D02*
X96340000Y-161420000D01*
X99340000Y-140920000D02*
X99340000Y-161360000D01*
X106840000Y-140860000D02*
X96340000Y-140860000D01*
X103840000Y-140920000D02*
X99340000Y-140920000D01*
X106840000Y-161420000D02*
X106840000Y-140860000D01*
X102590000Y-161360000D02*
X103840000Y-161360000D01*
X103840000Y-161360000D02*
X103840000Y-140920000D01*
X99340000Y-161360000D02*
X100590000Y-161360000D01*
X96340000Y-161420000D02*
X106840000Y-161420000D01*
X102590000Y-161360000D02*
G75*
G03*
X100590000Y-161360000I-1000000J0D01*
G01*
X31860000Y-36900000D02*
X31860000Y-39300000D01*
X31860000Y-39300000D02*
X36760000Y-39300000D01*
X36760000Y-36900000D02*
X31860000Y-36900000D01*
X36760000Y-39300000D02*
X36760000Y-36900000D01*
X96190000Y-191620000D02*
X99430000Y-191620000D01*
X96190000Y-189380000D02*
X99430000Y-189380000D01*
X96190000Y-191555000D02*
X96190000Y-191620000D01*
X99430000Y-189380000D02*
X99430000Y-189445000D01*
X99430000Y-191555000D02*
X99430000Y-191620000D01*
X96190000Y-189380000D02*
X96190000Y-189445000D01*
X111650000Y-45650000D02*
X111650000Y-43250000D01*
X106750000Y-43250000D02*
X106750000Y-45650000D01*
X111650000Y-43250000D02*
X106750000Y-43250000D01*
X106750000Y-45650000D02*
X111650000Y-45650000D01*
X107880000Y-77400000D02*
X107880000Y-72500000D01*
X105480000Y-77400000D02*
X107880000Y-77400000D01*
X105480000Y-72500000D02*
X105480000Y-77400000D01*
X107880000Y-72500000D02*
X105480000Y-72500000D01*
X99365000Y-137645000D02*
X102605000Y-137645000D01*
X99365000Y-137580000D02*
X99365000Y-137645000D01*
X99365000Y-135405000D02*
X102605000Y-135405000D01*
X102605000Y-135405000D02*
X102605000Y-135470000D01*
X99365000Y-135405000D02*
X99365000Y-135470000D01*
X102605000Y-137580000D02*
X102605000Y-137645000D01*
X53870000Y-186110000D02*
X50270000Y-186110000D01*
X50231522Y-186121522D02*
G75*
G03*
X52070000Y-190560000I1838478J-1838478D01*
G01*
X52070000Y-190560001D02*
G75*
G03*
X53908478Y-186121522I0J2600001D01*
G01*
X60270000Y-146580000D02*
X60270000Y-142980000D01*
X60258478Y-142941522D02*
G75*
G03*
X55820000Y-144780000I-1838478J-1838478D01*
G01*
X55819999Y-144780000D02*
G75*
G03*
X60258478Y-146618478I2600001J0D01*
G01*
X30360000Y-148590000D02*
X30360000Y-147260000D01*
X30360000Y-149860000D02*
X30360000Y-152460000D01*
X30360000Y-147260000D02*
X31690000Y-147260000D01*
X33020000Y-149860000D02*
X33020000Y-152460000D01*
X30360000Y-149860000D02*
X33020000Y-149860000D01*
X30360000Y-152460000D02*
X33020000Y-152460000D01*
X91290000Y-42240000D02*
X91225000Y-42240000D01*
X89115000Y-39000000D02*
X89050000Y-39000000D01*
X89115000Y-42240000D02*
X89050000Y-42240000D01*
X91290000Y-39000000D02*
X91290000Y-42240000D01*
X91290000Y-39000000D02*
X91225000Y-39000000D01*
X89050000Y-39000000D02*
X89050000Y-42240000D01*
X89050000Y-55510000D02*
X89050000Y-58750000D01*
X89115000Y-55510000D02*
X89050000Y-55510000D01*
X91290000Y-55510000D02*
X91225000Y-55510000D01*
X91290000Y-58750000D02*
X91225000Y-58750000D01*
X89115000Y-58750000D02*
X89050000Y-58750000D01*
X91290000Y-55510000D02*
X91290000Y-58750000D01*
X86210000Y-39000000D02*
X86145000Y-39000000D01*
X86210000Y-39000000D02*
X86210000Y-42240000D01*
X84035000Y-39000000D02*
X83970000Y-39000000D01*
X83970000Y-39000000D02*
X83970000Y-42240000D01*
X86210000Y-42240000D02*
X86145000Y-42240000D01*
X84035000Y-42240000D02*
X83970000Y-42240000D01*
%LPC*%
D15*
X90185000Y-189230000D03*
D16*
X90185000Y-186690000D03*
X90185000Y-184150000D03*
X90185000Y-181610000D03*
X90185000Y-179070000D03*
X90185000Y-176530000D03*
X90185000Y-173990000D03*
X90185000Y-171450000D03*
X90185000Y-168910000D03*
X82565000Y-168910000D03*
X82565000Y-171450000D03*
X82565000Y-173990000D03*
X82565000Y-176530000D03*
X82565000Y-179070000D03*
X82565000Y-181610000D03*
X82565000Y-184150000D03*
X82565000Y-186690000D03*
X82565000Y-189230000D03*
D17*
X74930000Y-52070000D03*
D18*
X74930000Y-57070000D03*
D19*
X46990000Y-165100000D03*
D20*
X45720000Y-165100000D03*
X44450000Y-165100000D03*
D21*
X50230000Y-54610000D03*
X45630000Y-54610000D03*
D22*
X66130000Y-54610000D03*
X61530000Y-54610000D03*
D23*
X96520000Y-163830000D03*
X99020000Y-163830000D03*
D15*
X90170000Y-162560000D03*
D16*
X90170000Y-160020000D03*
X90170000Y-157480000D03*
X90170000Y-154940000D03*
X90170000Y-152400000D03*
X90170000Y-149860000D03*
X90170000Y-147320000D03*
X90170000Y-144780000D03*
X90170000Y-142240000D03*
X82550000Y-142240000D03*
X82550000Y-144780000D03*
X82550000Y-147320000D03*
X82550000Y-149860000D03*
X82550000Y-152400000D03*
X82550000Y-154940000D03*
X82550000Y-157480000D03*
X82550000Y-160020000D03*
X82550000Y-162560000D03*
D23*
X86360000Y-130830000D03*
X86360000Y-133330000D03*
X76200000Y-137160000D03*
D24*
X76200000Y-127000000D03*
D25*
X58420000Y-130810000D03*
D26*
X58420000Y-129540000D03*
X58420000Y-128270000D03*
D23*
X39370000Y-168910000D03*
D24*
X39370000Y-158750000D03*
D27*
X110000000Y-30500000D03*
D17*
X74930000Y-35560000D03*
D18*
X74930000Y-40560000D03*
D25*
X38100000Y-143510000D03*
D26*
X38100000Y-144780000D03*
X38100000Y-146050000D03*
D23*
X43180000Y-128270000D03*
D24*
X53340000Y-128270000D03*
D23*
X53340000Y-172720000D03*
D24*
X53340000Y-182880000D03*
D23*
X43180000Y-139700000D03*
D24*
X53340000Y-139700000D03*
D23*
X72390000Y-137160000D03*
D24*
X72390000Y-127000000D03*
D28*
X53715000Y-167640000D03*
D29*
X53715000Y-165100000D03*
X53715000Y-162560000D03*
D23*
X45720000Y-161290000D03*
D24*
X45720000Y-151130000D03*
D25*
X38100000Y-128270000D03*
D26*
X38100000Y-129540000D03*
X38100000Y-130810000D03*
D18*
X107950000Y-50800000D03*
X110490000Y-50800000D03*
D23*
X80010000Y-137160000D03*
D24*
X80010000Y-127000000D03*
D30*
X49530000Y-64680000D03*
X49530000Y-69280000D03*
D22*
X49530000Y-85180000D03*
X49530000Y-80580000D03*
D31*
X95635000Y-129217500D03*
X94985000Y-129217500D03*
X94335000Y-129217500D03*
X93685000Y-129217500D03*
X93035000Y-129217500D03*
X92385000Y-129217500D03*
X91735000Y-129217500D03*
X91085000Y-129217500D03*
X90435000Y-129217500D03*
X89785000Y-129217500D03*
X89785000Y-134942500D03*
X90435000Y-134942500D03*
X91085000Y-134942500D03*
X91735000Y-134942500D03*
X92385000Y-134942500D03*
X93035000Y-134942500D03*
X93685000Y-134942500D03*
X94335000Y-134942500D03*
X94985000Y-134942500D03*
X95635000Y-134942500D03*
D25*
X58420000Y-138430000D03*
D26*
X58420000Y-137160000D03*
X58420000Y-135890000D03*
D23*
X43180000Y-143510000D03*
D24*
X53340000Y-143510000D03*
D18*
X107950000Y-38100000D03*
X110490000Y-38100000D03*
D32*
X85090000Y-35560000D03*
D33*
X87630000Y-35560000D03*
X90170000Y-35560000D03*
D25*
X38100000Y-135890000D03*
D26*
X38100000Y-137160000D03*
X38100000Y-138430000D03*
D23*
X43180000Y-135890000D03*
D24*
X53340000Y-135890000D03*
D15*
X105400000Y-186700000D03*
D16*
X105400000Y-184160000D03*
X105400000Y-181620000D03*
X105400000Y-179080000D03*
X105400000Y-176540000D03*
X105400000Y-174000000D03*
X105400000Y-171460000D03*
X105400000Y-168920000D03*
X97780000Y-168920000D03*
X97780000Y-171460000D03*
X97780000Y-174000000D03*
X97780000Y-176540000D03*
X97780000Y-179080000D03*
X97780000Y-181620000D03*
X97780000Y-184160000D03*
X97780000Y-186700000D03*
D28*
X53715000Y-157480000D03*
D29*
X53715000Y-154940000D03*
X53715000Y-152400000D03*
D34*
X58420000Y-157480000D03*
D24*
X58420000Y-165100000D03*
D23*
X43180000Y-147320000D03*
D24*
X53340000Y-147320000D03*
D35*
X68580000Y-185420000D03*
D36*
X66040000Y-185420000D03*
X68580000Y-182880000D03*
X66040000Y-182880000D03*
X68580000Y-180340000D03*
X66040000Y-180340000D03*
X68580000Y-177800000D03*
X66040000Y-177800000D03*
X68580000Y-175260000D03*
X66040000Y-175260000D03*
X68580000Y-172720000D03*
X66040000Y-172720000D03*
X68580000Y-170180000D03*
X66040000Y-170180000D03*
X68580000Y-167640000D03*
X66040000Y-167640000D03*
X68580000Y-165100000D03*
X66040000Y-165100000D03*
X68580000Y-162560000D03*
X66040000Y-162560000D03*
X68580000Y-160020000D03*
X66040000Y-160020000D03*
X68580000Y-157480000D03*
X66040000Y-157480000D03*
X68580000Y-154940000D03*
X66040000Y-154940000D03*
X68580000Y-152400000D03*
X66040000Y-152400000D03*
X68580000Y-149860000D03*
X66040000Y-149860000D03*
X68580000Y-147320000D03*
X66040000Y-147320000D03*
X68580000Y-144780000D03*
X66040000Y-144780000D03*
D32*
X85090000Y-52070000D03*
D33*
X87630000Y-52070000D03*
X90170000Y-52070000D03*
D27*
X30000000Y-190500000D03*
D21*
X50230000Y-38100000D03*
X45630000Y-38100000D03*
D22*
X61530000Y-38100000D03*
X66130000Y-38100000D03*
D37*
X33020000Y-45720000D03*
D38*
X38100000Y-45720000D03*
D17*
X100330000Y-35560000D03*
D18*
X100330000Y-40560000D03*
D39*
X110560000Y-142235000D03*
D40*
X110560000Y-144775000D03*
X110560000Y-147315000D03*
X110560000Y-149855000D03*
X110560000Y-152395000D03*
X110560000Y-154935000D03*
X110560000Y-157475000D03*
D17*
X100330000Y-52070000D03*
D18*
X100330000Y-57070000D03*
D27*
X30000000Y-30500000D03*
D23*
X85090000Y-55880000D03*
X85090000Y-58380000D03*
X49530000Y-172720000D03*
D24*
X49530000Y-182880000D03*
D39*
X62925000Y-78740000D03*
D40*
X65465000Y-78740000D03*
X68005000Y-78740000D03*
X70545000Y-78740000D03*
X73085000Y-78740000D03*
X75625000Y-78740000D03*
X78165000Y-78740000D03*
X80705000Y-78740000D03*
X83245000Y-78740000D03*
X85785000Y-78740000D03*
X88325000Y-78740000D03*
X90865000Y-78740000D03*
X93405000Y-78740000D03*
X95945000Y-78740000D03*
D23*
X43180000Y-132180000D03*
D24*
X53340000Y-132180000D03*
D41*
X62840000Y-115570000D03*
D42*
X65380000Y-115570000D03*
X67920000Y-115570000D03*
X70460000Y-115570000D03*
X73000000Y-115570000D03*
X75540000Y-115570000D03*
X78080000Y-115570000D03*
X80620000Y-115570000D03*
X83160000Y-115570000D03*
X85700000Y-115570000D03*
X88240000Y-115570000D03*
X90780000Y-115570000D03*
X93320000Y-115570000D03*
X95860000Y-115570000D03*
X98400000Y-115570000D03*
X98400000Y-90170000D03*
X95860000Y-90170000D03*
X93320000Y-90170000D03*
X90780000Y-90170000D03*
X88240000Y-90170000D03*
X85700000Y-90170000D03*
X83160000Y-90170000D03*
X80620000Y-90170000D03*
X78080000Y-90170000D03*
X75540000Y-90170000D03*
X73000000Y-90170000D03*
X70460000Y-90170000D03*
X67920000Y-90170000D03*
X65380000Y-90170000D03*
X62840000Y-90170000D03*
D15*
X105400000Y-160030000D03*
D16*
X105400000Y-157490000D03*
X105400000Y-154950000D03*
X105400000Y-152410000D03*
X105400000Y-149870000D03*
X105400000Y-147330000D03*
X105400000Y-144790000D03*
X105400000Y-142250000D03*
X97780000Y-142250000D03*
X97780000Y-144790000D03*
X97780000Y-147330000D03*
X97780000Y-149870000D03*
X97780000Y-152410000D03*
X97780000Y-154950000D03*
X97780000Y-157490000D03*
X97780000Y-160030000D03*
D18*
X33020000Y-38100000D03*
X35560000Y-38100000D03*
D27*
X110000000Y-190500000D03*
D23*
X96560000Y-190500000D03*
X99060000Y-190500000D03*
D18*
X107950000Y-44450000D03*
X110490000Y-44450000D03*
X106680000Y-73660000D03*
X106680000Y-76200000D03*
D23*
X99735000Y-136525000D03*
X102235000Y-136525000D03*
D19*
X53340000Y-187960000D03*
D20*
X52070000Y-187960000D03*
X50800000Y-187960000D03*
D25*
X58420000Y-146050000D03*
D26*
X58420000Y-144780000D03*
X58420000Y-143510000D03*
D39*
X31690000Y-148590000D03*
D40*
X31690000Y-151130000D03*
D23*
X90170000Y-39370000D03*
X90170000Y-41870000D03*
X90170000Y-55880000D03*
X90170000Y-58380000D03*
X85090000Y-39370000D03*
X85090000Y-41870000D03*
M02*
