%TF.GenerationSoftware,KiCad,Pcbnew,6.0.11-2627ca5db0~126~ubuntu20.04.1*%
%TF.CreationDate,2023-10-14T11:39:15+02:00*%
%TF.ProjectId,driverboardAnnax37623,64726976-6572-4626-9f61-7264416e6e61,rev?*%
%TF.SameCoordinates,Original*%
%TF.FileFunction,Drillmap*%
%TF.FilePolarity,Positive*%
%FSLAX45Y45*%
G04 Gerber Fmt 4.5, Leading zero omitted, Abs format (unit mm)*
G04 Created by KiCad (PCBNEW 6.0.11-2627ca5db0~126~ubuntu20.04.1) date 2023-10-14 11:39:15*
%MOMM*%
%LPD*%
G01*
G04 APERTURE LIST*
%ADD10C,0.100000*%
%ADD11C,0.200000*%
%ADD12C,0.320000*%
G04 APERTURE END LIST*
D10*
X2476500Y-19558000D02*
X2476500Y-2540000D01*
X11493500Y-2540000D02*
X11493500Y-19558000D01*
X11493500Y-19558000D02*
X2476500Y-19558000D01*
X2476500Y-2540000D02*
X11493500Y-2540000D01*
D11*
D12*
X2840000Y-2890000D02*
X3160000Y-3210000D01*
X3160000Y-2890000D02*
X2840000Y-3210000D01*
X2840000Y-18890000D02*
X3160000Y-19210000D01*
X3160000Y-18890000D02*
X2840000Y-19210000D01*
X10840000Y-2890000D02*
X11160000Y-3210000D01*
X11160000Y-2890000D02*
X10840000Y-3210000D01*
X10840000Y-18890000D02*
X11160000Y-19210000D01*
X11160000Y-18890000D02*
X10840000Y-19210000D01*
D11*
X2729119Y-19873476D02*
X2729119Y-19673476D01*
X2776738Y-19673476D01*
X2805309Y-19683000D01*
X2824357Y-19702048D01*
X2833881Y-19721095D01*
X2843405Y-19759190D01*
X2843405Y-19787762D01*
X2833881Y-19825857D01*
X2824357Y-19844905D01*
X2805309Y-19863952D01*
X2776738Y-19873476D01*
X2729119Y-19873476D01*
X2929119Y-19873476D02*
X2929119Y-19740143D01*
X2929119Y-19778238D02*
X2938643Y-19759190D01*
X2948167Y-19749667D01*
X2967214Y-19740143D01*
X2986262Y-19740143D01*
X3052928Y-19873476D02*
X3052928Y-19740143D01*
X3052928Y-19673476D02*
X3043405Y-19683000D01*
X3052928Y-19692524D01*
X3062452Y-19683000D01*
X3052928Y-19673476D01*
X3052928Y-19692524D01*
X3176738Y-19873476D02*
X3157690Y-19863952D01*
X3148167Y-19844905D01*
X3148167Y-19673476D01*
X3281500Y-19873476D02*
X3262452Y-19863952D01*
X3252928Y-19844905D01*
X3252928Y-19673476D01*
X3510071Y-19873476D02*
X3510071Y-19673476D01*
X3576738Y-19816333D01*
X3643405Y-19673476D01*
X3643405Y-19873476D01*
X3824357Y-19873476D02*
X3824357Y-19768714D01*
X3814833Y-19749667D01*
X3795786Y-19740143D01*
X3757690Y-19740143D01*
X3738643Y-19749667D01*
X3824357Y-19863952D02*
X3805309Y-19873476D01*
X3757690Y-19873476D01*
X3738643Y-19863952D01*
X3729119Y-19844905D01*
X3729119Y-19825857D01*
X3738643Y-19806810D01*
X3757690Y-19797286D01*
X3805309Y-19797286D01*
X3824357Y-19787762D01*
X3919595Y-19740143D02*
X3919595Y-19940143D01*
X3919595Y-19749667D02*
X3938643Y-19740143D01*
X3976738Y-19740143D01*
X3995786Y-19749667D01*
X4005309Y-19759190D01*
X4014833Y-19778238D01*
X4014833Y-19835381D01*
X4005309Y-19854429D01*
X3995786Y-19863952D01*
X3976738Y-19873476D01*
X3938643Y-19873476D01*
X3919595Y-19863952D01*
X4100548Y-19854429D02*
X4110071Y-19863952D01*
X4100548Y-19873476D01*
X4091024Y-19863952D01*
X4100548Y-19854429D01*
X4100548Y-19873476D01*
X4100548Y-19749667D02*
X4110071Y-19759190D01*
X4100548Y-19768714D01*
X4091024Y-19759190D01*
X4100548Y-19749667D01*
X4100548Y-19768714D01*
X2271500Y-20103000D02*
X2471500Y-20303000D01*
X2471500Y-20103000D02*
X2271500Y-20303000D01*
X2710071Y-20093476D02*
X2833881Y-20093476D01*
X2767214Y-20169667D01*
X2795786Y-20169667D01*
X2814833Y-20179190D01*
X2824357Y-20188714D01*
X2833881Y-20207762D01*
X2833881Y-20255381D01*
X2824357Y-20274429D01*
X2814833Y-20283952D01*
X2795786Y-20293476D01*
X2738643Y-20293476D01*
X2719595Y-20283952D01*
X2710071Y-20274429D01*
X2919595Y-20274429D02*
X2929119Y-20283952D01*
X2919595Y-20293476D01*
X2910071Y-20283952D01*
X2919595Y-20274429D01*
X2919595Y-20293476D01*
X3005309Y-20112524D02*
X3014833Y-20103000D01*
X3033881Y-20093476D01*
X3081500Y-20093476D01*
X3100548Y-20103000D01*
X3110071Y-20112524D01*
X3119595Y-20131571D01*
X3119595Y-20150619D01*
X3110071Y-20179190D01*
X2995786Y-20293476D01*
X3119595Y-20293476D01*
X3243405Y-20093476D02*
X3262452Y-20093476D01*
X3281500Y-20103000D01*
X3291024Y-20112524D01*
X3300548Y-20131571D01*
X3310071Y-20169667D01*
X3310071Y-20217286D01*
X3300548Y-20255381D01*
X3291024Y-20274429D01*
X3281500Y-20283952D01*
X3262452Y-20293476D01*
X3243405Y-20293476D01*
X3224357Y-20283952D01*
X3214833Y-20274429D01*
X3205309Y-20255381D01*
X3195786Y-20217286D01*
X3195786Y-20169667D01*
X3205309Y-20131571D01*
X3214833Y-20112524D01*
X3224357Y-20103000D01*
X3243405Y-20093476D01*
X3433881Y-20093476D02*
X3452928Y-20093476D01*
X3471976Y-20103000D01*
X3481500Y-20112524D01*
X3491024Y-20131571D01*
X3500548Y-20169667D01*
X3500548Y-20217286D01*
X3491024Y-20255381D01*
X3481500Y-20274429D01*
X3471976Y-20283952D01*
X3452928Y-20293476D01*
X3433881Y-20293476D01*
X3414833Y-20283952D01*
X3405309Y-20274429D01*
X3395786Y-20255381D01*
X3386262Y-20217286D01*
X3386262Y-20169667D01*
X3395786Y-20131571D01*
X3405309Y-20112524D01*
X3414833Y-20103000D01*
X3433881Y-20093476D01*
X3586262Y-20293476D02*
X3586262Y-20160143D01*
X3586262Y-20179190D02*
X3595786Y-20169667D01*
X3614833Y-20160143D01*
X3643405Y-20160143D01*
X3662452Y-20169667D01*
X3671976Y-20188714D01*
X3671976Y-20293476D01*
X3671976Y-20188714D02*
X3681500Y-20169667D01*
X3700548Y-20160143D01*
X3729119Y-20160143D01*
X3748167Y-20169667D01*
X3757690Y-20188714D01*
X3757690Y-20293476D01*
X3852928Y-20293476D02*
X3852928Y-20160143D01*
X3852928Y-20179190D02*
X3862452Y-20169667D01*
X3881500Y-20160143D01*
X3910071Y-20160143D01*
X3929119Y-20169667D01*
X3938643Y-20188714D01*
X3938643Y-20293476D01*
X3938643Y-20188714D02*
X3948167Y-20169667D01*
X3967214Y-20160143D01*
X3995786Y-20160143D01*
X4014833Y-20169667D01*
X4024357Y-20188714D01*
X4024357Y-20293476D01*
X4414833Y-20083952D02*
X4243405Y-20341095D01*
X4671976Y-20093476D02*
X4691024Y-20093476D01*
X4710071Y-20103000D01*
X4719595Y-20112524D01*
X4729119Y-20131571D01*
X4738643Y-20169667D01*
X4738643Y-20217286D01*
X4729119Y-20255381D01*
X4719595Y-20274429D01*
X4710071Y-20283952D01*
X4691024Y-20293476D01*
X4671976Y-20293476D01*
X4652929Y-20283952D01*
X4643405Y-20274429D01*
X4633881Y-20255381D01*
X4624357Y-20217286D01*
X4624357Y-20169667D01*
X4633881Y-20131571D01*
X4643405Y-20112524D01*
X4652929Y-20103000D01*
X4671976Y-20093476D01*
X4824357Y-20274429D02*
X4833881Y-20283952D01*
X4824357Y-20293476D01*
X4814833Y-20283952D01*
X4824357Y-20274429D01*
X4824357Y-20293476D01*
X5024357Y-20293476D02*
X4910071Y-20293476D01*
X4967214Y-20293476D02*
X4967214Y-20093476D01*
X4948167Y-20122048D01*
X4929119Y-20141095D01*
X4910071Y-20150619D01*
X5100548Y-20112524D02*
X5110071Y-20103000D01*
X5129119Y-20093476D01*
X5176738Y-20093476D01*
X5195786Y-20103000D01*
X5205310Y-20112524D01*
X5214833Y-20131571D01*
X5214833Y-20150619D01*
X5205310Y-20179190D01*
X5091024Y-20293476D01*
X5214833Y-20293476D01*
X5386262Y-20093476D02*
X5348167Y-20093476D01*
X5329119Y-20103000D01*
X5319595Y-20112524D01*
X5300548Y-20141095D01*
X5291024Y-20179190D01*
X5291024Y-20255381D01*
X5300548Y-20274429D01*
X5310071Y-20283952D01*
X5329119Y-20293476D01*
X5367214Y-20293476D01*
X5386262Y-20283952D01*
X5395786Y-20274429D01*
X5405310Y-20255381D01*
X5405310Y-20207762D01*
X5395786Y-20188714D01*
X5386262Y-20179190D01*
X5367214Y-20169667D01*
X5329119Y-20169667D01*
X5310071Y-20179190D01*
X5300548Y-20188714D01*
X5291024Y-20207762D01*
X5529119Y-20093476D02*
X5548167Y-20093476D01*
X5567214Y-20103000D01*
X5576738Y-20112524D01*
X5586262Y-20131571D01*
X5595786Y-20169667D01*
X5595786Y-20217286D01*
X5586262Y-20255381D01*
X5576738Y-20274429D01*
X5567214Y-20283952D01*
X5548167Y-20293476D01*
X5529119Y-20293476D01*
X5510071Y-20283952D01*
X5500548Y-20274429D01*
X5491024Y-20255381D01*
X5481500Y-20217286D01*
X5481500Y-20169667D01*
X5491024Y-20131571D01*
X5500548Y-20112524D01*
X5510071Y-20103000D01*
X5529119Y-20093476D01*
X5671976Y-20093476D02*
X5671976Y-20131571D01*
X5748167Y-20093476D02*
X5748167Y-20131571D01*
X6043405Y-20369667D02*
X6033881Y-20360143D01*
X6014833Y-20331571D01*
X6005309Y-20312524D01*
X5995786Y-20283952D01*
X5986262Y-20236333D01*
X5986262Y-20198238D01*
X5995786Y-20150619D01*
X6005309Y-20122048D01*
X6014833Y-20103000D01*
X6033881Y-20074429D01*
X6043405Y-20064905D01*
X6205309Y-20160143D02*
X6205309Y-20293476D01*
X6157690Y-20083952D02*
X6110071Y-20226810D01*
X6233881Y-20226810D01*
X6462452Y-20293476D02*
X6462452Y-20093476D01*
X6548167Y-20293476D02*
X6548167Y-20188714D01*
X6538643Y-20169667D01*
X6519595Y-20160143D01*
X6491024Y-20160143D01*
X6471976Y-20169667D01*
X6462452Y-20179190D01*
X6671976Y-20293476D02*
X6652928Y-20283952D01*
X6643405Y-20274429D01*
X6633881Y-20255381D01*
X6633881Y-20198238D01*
X6643405Y-20179190D01*
X6652928Y-20169667D01*
X6671976Y-20160143D01*
X6700548Y-20160143D01*
X6719595Y-20169667D01*
X6729119Y-20179190D01*
X6738643Y-20198238D01*
X6738643Y-20255381D01*
X6729119Y-20274429D01*
X6719595Y-20283952D01*
X6700548Y-20293476D01*
X6671976Y-20293476D01*
X6852928Y-20293476D02*
X6833881Y-20283952D01*
X6824357Y-20264905D01*
X6824357Y-20093476D01*
X7005309Y-20283952D02*
X6986262Y-20293476D01*
X6948167Y-20293476D01*
X6929119Y-20283952D01*
X6919595Y-20264905D01*
X6919595Y-20188714D01*
X6929119Y-20169667D01*
X6948167Y-20160143D01*
X6986262Y-20160143D01*
X7005309Y-20169667D01*
X7014833Y-20188714D01*
X7014833Y-20207762D01*
X6919595Y-20226810D01*
X7091024Y-20283952D02*
X7110071Y-20293476D01*
X7148167Y-20293476D01*
X7167214Y-20283952D01*
X7176738Y-20264905D01*
X7176738Y-20255381D01*
X7167214Y-20236333D01*
X7148167Y-20226810D01*
X7119595Y-20226810D01*
X7100548Y-20217286D01*
X7091024Y-20198238D01*
X7091024Y-20188714D01*
X7100548Y-20169667D01*
X7119595Y-20160143D01*
X7148167Y-20160143D01*
X7167214Y-20169667D01*
X7243405Y-20369667D02*
X7252928Y-20360143D01*
X7271976Y-20331571D01*
X7281500Y-20312524D01*
X7291024Y-20283952D01*
X7300548Y-20236333D01*
X7300548Y-20198238D01*
X7291024Y-20150619D01*
X7281500Y-20122048D01*
X7271976Y-20103000D01*
X7252928Y-20074429D01*
X7243405Y-20064905D01*
X7605309Y-20369667D02*
X7595786Y-20360143D01*
X7576738Y-20331571D01*
X7567214Y-20312524D01*
X7557690Y-20283952D01*
X7548167Y-20236333D01*
X7548167Y-20198238D01*
X7557690Y-20150619D01*
X7567214Y-20122048D01*
X7576738Y-20103000D01*
X7595786Y-20074429D01*
X7605309Y-20064905D01*
X7681500Y-20160143D02*
X7681500Y-20293476D01*
X7681500Y-20179190D02*
X7691024Y-20169667D01*
X7710071Y-20160143D01*
X7738643Y-20160143D01*
X7757690Y-20169667D01*
X7767214Y-20188714D01*
X7767214Y-20293476D01*
X7891024Y-20293476D02*
X7871976Y-20283952D01*
X7862452Y-20274429D01*
X7852928Y-20255381D01*
X7852928Y-20198238D01*
X7862452Y-20179190D01*
X7871976Y-20169667D01*
X7891024Y-20160143D01*
X7919595Y-20160143D01*
X7938643Y-20169667D01*
X7948167Y-20179190D01*
X7957690Y-20198238D01*
X7957690Y-20255381D01*
X7948167Y-20274429D01*
X7938643Y-20283952D01*
X7919595Y-20293476D01*
X7891024Y-20293476D01*
X8014833Y-20160143D02*
X8091024Y-20160143D01*
X8043405Y-20093476D02*
X8043405Y-20264905D01*
X8052928Y-20283952D01*
X8071976Y-20293476D01*
X8091024Y-20293476D01*
X8310071Y-20160143D02*
X8310071Y-20360143D01*
X8310071Y-20169667D02*
X8329119Y-20160143D01*
X8367214Y-20160143D01*
X8386262Y-20169667D01*
X8395786Y-20179190D01*
X8405310Y-20198238D01*
X8405310Y-20255381D01*
X8395786Y-20274429D01*
X8386262Y-20283952D01*
X8367214Y-20293476D01*
X8329119Y-20293476D01*
X8310071Y-20283952D01*
X8519595Y-20293476D02*
X8500548Y-20283952D01*
X8491024Y-20264905D01*
X8491024Y-20093476D01*
X8681500Y-20293476D02*
X8681500Y-20188714D01*
X8671976Y-20169667D01*
X8652929Y-20160143D01*
X8614833Y-20160143D01*
X8595786Y-20169667D01*
X8681500Y-20283952D02*
X8662452Y-20293476D01*
X8614833Y-20293476D01*
X8595786Y-20283952D01*
X8586262Y-20264905D01*
X8586262Y-20245857D01*
X8595786Y-20226810D01*
X8614833Y-20217286D01*
X8662452Y-20217286D01*
X8681500Y-20207762D01*
X8748167Y-20160143D02*
X8824357Y-20160143D01*
X8776738Y-20093476D02*
X8776738Y-20264905D01*
X8786262Y-20283952D01*
X8805310Y-20293476D01*
X8824357Y-20293476D01*
X8967214Y-20283952D02*
X8948167Y-20293476D01*
X8910071Y-20293476D01*
X8891024Y-20283952D01*
X8881500Y-20264905D01*
X8881500Y-20188714D01*
X8891024Y-20169667D01*
X8910071Y-20160143D01*
X8948167Y-20160143D01*
X8967214Y-20169667D01*
X8976738Y-20188714D01*
X8976738Y-20207762D01*
X8881500Y-20226810D01*
X9148167Y-20293476D02*
X9148167Y-20093476D01*
X9148167Y-20283952D02*
X9129119Y-20293476D01*
X9091024Y-20293476D01*
X9071976Y-20283952D01*
X9062452Y-20274429D01*
X9052929Y-20255381D01*
X9052929Y-20198238D01*
X9062452Y-20179190D01*
X9071976Y-20169667D01*
X9091024Y-20160143D01*
X9129119Y-20160143D01*
X9148167Y-20169667D01*
X9224357Y-20369667D02*
X9233881Y-20360143D01*
X9252929Y-20331571D01*
X9262452Y-20312524D01*
X9271976Y-20283952D01*
X9281500Y-20236333D01*
X9281500Y-20198238D01*
X9271976Y-20150619D01*
X9262452Y-20122048D01*
X9252929Y-20103000D01*
X9233881Y-20074429D01*
X9224357Y-20064905D01*
M02*
