M48
; DRILL file {KiCad 6.0.11-2627ca5db0~126~ubuntu20.04.1} date Sa 14 Okt 2023 11:39:14 CEST
; FORMAT={-:-/ absolute / metric / decimal}
; #@! TF.CreationDate,2023-10-14T11:39:14+02:00
; #@! TF.GenerationSoftware,Kicad,Pcbnew,6.0.11-2627ca5db0~126~ubuntu20.04.1
; #@! TF.FileFunction,Plated,1,2,PTH
FMAT,2
METRIC
; #@! TA.AperFunction,Plated,PTH,ViaDrill
T1C0.400
; #@! TA.AperFunction,Plated,PTH,ComponentDrill
T2C0.750
; #@! TA.AperFunction,Plated,PTH,ComponentDrill
T3C0.762
; #@! TA.AperFunction,Plated,PTH,ComponentDrill
T4C0.800
; #@! TA.AperFunction,Plated,PTH,ComponentDrill
T5C1.000
; #@! TA.AperFunction,Plated,PTH,ComponentDrill
T6C1.100
; #@! TA.AperFunction,Plated,PTH,ComponentDrill
T7C1.300
; #@! TA.AperFunction,Plated,PTH,ComponentDrill
T8C1.520
%
G90
G05
T1
X34.925Y-179.07
X44.45Y-45.72
X45.085Y-168.275
X45.72Y-113.03
X47.625Y-116.205
X49.53Y-118.745
X50.8Y-45.72
X53.34Y-114.935
X54.61Y-92.075
X57.15Y-191.77
X57.785Y-45.72
X58.42Y-120.65
X58.42Y-161.29
X59.69Y-140.97
X62.23Y-120.65
X62.865Y-65.405
X64.135Y-45.72
X66.675Y-130.81
X68.58Y-137.16
X71.12Y-118.11
X71.12Y-120.65
X78.105Y-45.72
X80.645Y-65.405
X85.725Y-122.555
X90.805Y-123.825
X91.948Y-139.192
X92.96Y-120.904
X92.964Y-153.924
X92.964Y-168.656
X93.345Y-151.765
X94.615Y-149.86
X95.25Y-45.72
X95.25Y-65.405
X96.52Y-139.065
X100.33Y-124.46
X104.775Y-97.155
X105.41Y-65.405
X108.585Y-105.41
T2
X38.1Y-128.27
X38.1Y-129.54
X38.1Y-130.81
X38.1Y-135.89
X38.1Y-137.16
X38.1Y-138.43
X38.1Y-143.51
X38.1Y-144.78
X38.1Y-146.05
X44.45Y-165.1
X45.72Y-165.1
X46.99Y-165.1
X50.8Y-187.96
X52.07Y-187.96
X53.34Y-187.96
X58.42Y-128.27
X58.42Y-129.54
X58.42Y-130.81
X58.42Y-135.89
X58.42Y-137.16
X58.42Y-138.43
X58.42Y-143.51
X58.42Y-144.78
X58.42Y-146.05
T3
X62.84Y-90.17
X62.84Y-115.57
X65.38Y-90.17
X65.38Y-115.57
X67.92Y-90.17
X67.92Y-115.57
X70.46Y-90.17
X70.46Y-115.57
X73.0Y-90.17
X73.0Y-115.57
X75.54Y-90.17
X75.54Y-115.57
X78.08Y-90.17
X78.08Y-115.57
X80.62Y-90.17
X80.62Y-115.57
X83.16Y-90.17
X83.16Y-115.57
X85.7Y-90.17
X85.7Y-115.57
X88.24Y-90.17
X88.24Y-115.57
X90.78Y-90.17
X90.78Y-115.57
X93.32Y-90.17
X93.32Y-115.57
X95.86Y-90.17
X95.86Y-115.57
X98.4Y-90.17
X98.4Y-115.57
T4
X39.37Y-158.75
X39.37Y-168.91
X43.18Y-128.27
X43.18Y-132.18
X43.18Y-135.89
X43.18Y-139.7
X43.18Y-143.51
X43.18Y-147.32
X45.72Y-151.13
X45.72Y-161.29
X49.53Y-172.72
X49.53Y-182.88
X53.34Y-128.27
X53.34Y-132.18
X53.34Y-135.89
X53.34Y-139.7
X53.34Y-143.51
X53.34Y-147.32
X53.34Y-172.72
X53.34Y-182.88
X58.42Y-157.48
X58.42Y-165.1
X72.39Y-127.0
X72.39Y-137.16
X76.2Y-127.0
X76.2Y-137.16
X80.01Y-127.0
X80.01Y-137.16
X82.55Y-142.24
X82.55Y-144.78
X82.55Y-147.32
X82.55Y-149.86
X82.55Y-152.4
X82.55Y-154.94
X82.55Y-157.48
X82.55Y-160.02
X82.55Y-162.56
X82.565Y-168.91
X82.565Y-171.45
X82.565Y-173.99
X82.565Y-176.53
X82.565Y-179.07
X82.565Y-181.61
X82.565Y-184.15
X82.565Y-186.69
X82.565Y-189.23
X85.09Y-39.37
X85.09Y-41.87
X85.09Y-55.88
X85.09Y-58.38
X86.36Y-130.83
X86.36Y-133.33
X90.17Y-39.37
X90.17Y-41.87
X90.17Y-55.88
X90.17Y-58.38
X90.17Y-142.24
X90.17Y-144.78
X90.17Y-147.32
X90.17Y-149.86
X90.17Y-152.4
X90.17Y-154.94
X90.17Y-157.48
X90.17Y-160.02
X90.17Y-162.56
X90.185Y-168.91
X90.185Y-171.45
X90.185Y-173.99
X90.185Y-176.53
X90.185Y-179.07
X90.185Y-181.61
X90.185Y-184.15
X90.185Y-186.69
X90.185Y-189.23
X96.52Y-163.83
X96.56Y-190.5
X97.78Y-142.25
X97.78Y-144.79
X97.78Y-147.33
X97.78Y-149.87
X97.78Y-152.41
X97.78Y-154.95
X97.78Y-157.49
X97.78Y-160.03
X97.78Y-168.92
X97.78Y-171.46
X97.78Y-174.0
X97.78Y-176.54
X97.78Y-179.08
X97.78Y-181.62
X97.78Y-184.16
X97.78Y-186.7
X99.02Y-163.83
X99.06Y-190.5
X99.735Y-136.525
X102.235Y-136.525
X105.4Y-142.25
X105.4Y-144.79
X105.4Y-147.33
X105.4Y-149.87
X105.4Y-152.41
X105.4Y-154.95
X105.4Y-157.49
X105.4Y-160.03
X105.4Y-168.92
X105.4Y-171.46
X105.4Y-174.0
X105.4Y-176.54
X105.4Y-179.08
X105.4Y-181.62
X105.4Y-184.16
X105.4Y-186.7
T5
X31.69Y-148.59
X31.69Y-151.13
X33.02Y-38.1
X35.56Y-38.1
X53.715Y-152.4
X53.715Y-154.94
X53.715Y-157.48
X53.715Y-162.56
X53.715Y-165.1
X53.715Y-167.64
X62.925Y-78.74
X65.465Y-78.74
X66.04Y-144.78
X66.04Y-147.32
X66.04Y-149.86
X66.04Y-152.4
X66.04Y-154.94
X66.04Y-157.48
X66.04Y-160.02
X66.04Y-162.56
X66.04Y-165.1
X66.04Y-167.64
X66.04Y-170.18
X66.04Y-172.72
X66.04Y-175.26
X66.04Y-177.8
X66.04Y-180.34
X66.04Y-182.88
X66.04Y-185.42
X68.005Y-78.74
X68.58Y-144.78
X68.58Y-147.32
X68.58Y-149.86
X68.58Y-152.4
X68.58Y-154.94
X68.58Y-157.48
X68.58Y-160.02
X68.58Y-162.56
X68.58Y-165.1
X68.58Y-167.64
X68.58Y-170.18
X68.58Y-172.72
X68.58Y-175.26
X68.58Y-177.8
X68.58Y-180.34
X68.58Y-182.88
X68.58Y-185.42
X70.545Y-78.74
X73.085Y-78.74
X74.93Y-35.56
X74.93Y-40.56
X74.93Y-52.07
X74.93Y-57.07
X75.625Y-78.74
X78.165Y-78.74
X80.705Y-78.74
X83.245Y-78.74
X85.785Y-78.74
X88.325Y-78.74
X90.865Y-78.74
X93.405Y-78.74
X95.945Y-78.74
X100.33Y-35.56
X100.33Y-40.56
X100.33Y-52.07
X100.33Y-57.07
X106.68Y-73.66
X106.68Y-76.2
X107.95Y-38.1
X107.95Y-44.45
X107.95Y-50.8
X110.49Y-38.1
X110.49Y-44.45
X110.49Y-50.8
X110.56Y-142.235
X110.56Y-144.775
X110.56Y-147.315
X110.56Y-149.855
X110.56Y-152.395
X110.56Y-154.935
X110.56Y-157.475
T6
X85.09Y-35.56
X85.09Y-52.07
X87.63Y-35.56
X87.63Y-52.07
X90.17Y-35.56
X90.17Y-52.07
T7
X45.63Y-38.1
X45.63Y-54.61
X49.53Y-64.68
X49.53Y-69.28
X49.53Y-80.58
X49.53Y-85.18
X50.23Y-38.1
X50.23Y-54.61
X61.53Y-38.1
X61.53Y-54.61
X66.13Y-38.1
X66.13Y-54.61
T8
X33.02Y-45.72
X38.1Y-45.72
T0
M30
