<?xml version="1.0"?>
<!DOCTYPE svg PUBLIC "-//W3C//DTD SVG 1.1//EN" "http://www.w3.org/Graphics/SVG/1.1/DTD/svg11.dtd">
<svg width="92.00399999999973mm" height="22.80399999999983mm" viewBox="0 0 92.00399999999973 22.80399999999983" xmlns="http://www.w3.org/2000/svg" version="1.1">
<g id="Sketch004" transform="translate(-103.998000,192.902000) scale(1,-1)">
<path id="Sketch004_w0000"  d="M 104.90000000000013 171.0 L 104.90000000000013 190.00000000001737 A 2 2 0 0 0 106.9 192L 193.10000000001298 191.9999999999998 A 2 2 0 0 0 195.1 190L 195.09999999999988 170.99999999999994 L 185.9999960933514 170.99999999999994 A 3 3 0 0 0 183 174A 3 3 0 0 1 180 177L 119.99999999999999 177.0 A 3 3 0 0 1 117 174A 3 3 0 0 0 114 171L 104.90000000000013 171.0 " stroke="#191919" stroke-width="0.35 px" style="stroke-width:0.35;stroke-miterlimit:4;stroke-dasharray:none;stroke-linecap:square;fill:none;fill-opacity:1;fill-rule: evenodd"/>
<circle cx="190.0" cy="176.0" r="1.25" stroke="#191919" stroke-width="0.35 px" style="stroke-width:0.35;stroke-miterlimit:4;stroke-dasharray:none;stroke-linecap:square;fill:none"/>
<circle cx="109.99999999999999" cy="176.0" r="1.25" stroke="#191919" stroke-width="0.35 px" style="stroke-width:0.35;stroke-miterlimit:4;stroke-dasharray:none;stroke-linecap:square;fill:none"/>
<title>b'Sketch004'</title>
</g>
</svg>