G04 #@! TF.GenerationSoftware,KiCad,Pcbnew,6.0.11-2627ca5db0~126~ubuntu20.04.1*
G04 #@! TF.CreationDate,2023-10-14T11:39:08+02:00*
G04 #@! TF.ProjectId,driverboardAnnax37623,64726976-6572-4626-9f61-7264416e6e61,rev?*
G04 #@! TF.SameCoordinates,Original*
G04 #@! TF.FileFunction,Soldermask,Top*
G04 #@! TF.FilePolarity,Negative*
%FSLAX46Y46*%
G04 Gerber Fmt 4.6, Leading zero omitted, Abs format (unit mm)*
G04 Created by KiCad (PCBNEW 6.0.11-2627ca5db0~126~ubuntu20.04.1) date 2023-10-14 11:39:08*
%MOMM*%
%LPD*%
G01*
G04 APERTURE LIST*
G04 Aperture macros list*
%AMRoundRect*
0 Rectangle with rounded corners*
0 $1 Rounding radius*
0 $2 $3 $4 $5 $6 $7 $8 $9 X,Y pos of 4 corners*
0 Add a 4 corners polygon primitive as box body*
4,1,4,$2,$3,$4,$5,$6,$7,$8,$9,$2,$3,0*
0 Add four circle primitives for the rounded corners*
1,1,$1+$1,$2,$3*
1,1,$1+$1,$4,$5*
1,1,$1+$1,$6,$7*
1,1,$1+$1,$8,$9*
0 Add four rect primitives between the rounded corners*
20,1,$1+$1,$2,$3,$4,$5,0*
20,1,$1+$1,$4,$5,$6,$7,0*
20,1,$1+$1,$6,$7,$8,$9,0*
20,1,$1+$1,$8,$9,$2,$3,0*%
G04 Aperture macros list end*
%ADD10R,2.400000X1.600000*%
%ADD11O,2.400000X1.600000*%
%ADD12R,2.000000X2.000000*%
%ADD13C,2.000000*%
%ADD14R,1.050000X1.500000*%
%ADD15O,1.050000X1.500000*%
%ADD16RoundRect,0.575000X-0.575000X-0.575000X0.575000X-0.575000X0.575000X0.575000X-0.575000X0.575000X0*%
%ADD17C,2.300000*%
%ADD18C,1.600000*%
%ADD19O,1.600000X1.600000*%
%ADD20R,1.500000X1.050000*%
%ADD21O,1.500000X1.050000*%
%ADD22C,3.200000*%
%ADD23R,1.800000X1.800000*%
%ADD24O,1.800000X1.800000*%
%ADD25RoundRect,0.575000X-0.575000X0.575000X-0.575000X-0.575000X0.575000X-0.575000X0.575000X0.575000X0*%
%ADD26RoundRect,0.100000X-0.100000X0.637500X-0.100000X-0.637500X0.100000X-0.637500X0.100000X0.637500X0*%
%ADD27R,1.905000X2.000000*%
%ADD28O,1.905000X2.000000*%
%ADD29R,1.600000X1.600000*%
%ADD30RoundRect,0.250000X0.600000X0.600000X-0.600000X0.600000X-0.600000X-0.600000X0.600000X-0.600000X0*%
%ADD31C,1.700000*%
%ADD32R,3.000000X3.000000*%
%ADD33C,3.000000*%
%ADD34R,1.700000X1.700000*%
%ADD35O,1.700000X1.700000*%
%ADD36R,1.524000X1.524000*%
%ADD37C,1.524000*%
G04 APERTURE END LIST*
D10*
X90185000Y-189230000D03*
D11*
X90185000Y-186690000D03*
X90185000Y-184150000D03*
X90185000Y-181610000D03*
X90185000Y-179070000D03*
X90185000Y-176530000D03*
X90185000Y-173990000D03*
X90185000Y-171450000D03*
X90185000Y-168910000D03*
X82565000Y-168910000D03*
X82565000Y-171450000D03*
X82565000Y-173990000D03*
X82565000Y-176530000D03*
X82565000Y-179070000D03*
X82565000Y-181610000D03*
X82565000Y-184150000D03*
X82565000Y-186690000D03*
X82565000Y-189230000D03*
D12*
X74930000Y-52070000D03*
D13*
X74930000Y-57070000D03*
D14*
X46990000Y-165100000D03*
D15*
X45720000Y-165100000D03*
X44450000Y-165100000D03*
D16*
X50230000Y-54610000D03*
X45630000Y-54610000D03*
D17*
X66130000Y-54610000D03*
X61530000Y-54610000D03*
D18*
X96520000Y-163830000D03*
X99020000Y-163830000D03*
D10*
X90170000Y-162560000D03*
D11*
X90170000Y-160020000D03*
X90170000Y-157480000D03*
X90170000Y-154940000D03*
X90170000Y-152400000D03*
X90170000Y-149860000D03*
X90170000Y-147320000D03*
X90170000Y-144780000D03*
X90170000Y-142240000D03*
X82550000Y-142240000D03*
X82550000Y-144780000D03*
X82550000Y-147320000D03*
X82550000Y-149860000D03*
X82550000Y-152400000D03*
X82550000Y-154940000D03*
X82550000Y-157480000D03*
X82550000Y-160020000D03*
X82550000Y-162560000D03*
D18*
X86360000Y-130830000D03*
X86360000Y-133330000D03*
X76200000Y-137160000D03*
D19*
X76200000Y-127000000D03*
D20*
X58420000Y-130810000D03*
D21*
X58420000Y-129540000D03*
X58420000Y-128270000D03*
D18*
X39370000Y-168910000D03*
D19*
X39370000Y-158750000D03*
D22*
X110000000Y-30500000D03*
D12*
X74930000Y-35560000D03*
D13*
X74930000Y-40560000D03*
D20*
X38100000Y-143510000D03*
D21*
X38100000Y-144780000D03*
X38100000Y-146050000D03*
D18*
X43180000Y-128270000D03*
D19*
X53340000Y-128270000D03*
D18*
X53340000Y-172720000D03*
D19*
X53340000Y-182880000D03*
D18*
X43180000Y-139700000D03*
D19*
X53340000Y-139700000D03*
D18*
X72390000Y-137160000D03*
D19*
X72390000Y-127000000D03*
D23*
X53715000Y-167640000D03*
D24*
X53715000Y-165100000D03*
X53715000Y-162560000D03*
D18*
X45720000Y-161290000D03*
D19*
X45720000Y-151130000D03*
D20*
X38100000Y-128270000D03*
D21*
X38100000Y-129540000D03*
X38100000Y-130810000D03*
D13*
X107950000Y-50800000D03*
X110490000Y-50800000D03*
D18*
X80010000Y-137160000D03*
D19*
X80010000Y-127000000D03*
D25*
X49530000Y-64680000D03*
X49530000Y-69280000D03*
D17*
X49530000Y-85180000D03*
X49530000Y-80580000D03*
D26*
X95635000Y-129217500D03*
X94985000Y-129217500D03*
X94335000Y-129217500D03*
X93685000Y-129217500D03*
X93035000Y-129217500D03*
X92385000Y-129217500D03*
X91735000Y-129217500D03*
X91085000Y-129217500D03*
X90435000Y-129217500D03*
X89785000Y-129217500D03*
X89785000Y-134942500D03*
X90435000Y-134942500D03*
X91085000Y-134942500D03*
X91735000Y-134942500D03*
X92385000Y-134942500D03*
X93035000Y-134942500D03*
X93685000Y-134942500D03*
X94335000Y-134942500D03*
X94985000Y-134942500D03*
X95635000Y-134942500D03*
D20*
X58420000Y-138430000D03*
D21*
X58420000Y-137160000D03*
X58420000Y-135890000D03*
D18*
X43180000Y-143510000D03*
D19*
X53340000Y-143510000D03*
D13*
X107950000Y-38100000D03*
X110490000Y-38100000D03*
D27*
X85090000Y-35560000D03*
D28*
X87630000Y-35560000D03*
X90170000Y-35560000D03*
D20*
X38100000Y-135890000D03*
D21*
X38100000Y-137160000D03*
X38100000Y-138430000D03*
D18*
X43180000Y-135890000D03*
D19*
X53340000Y-135890000D03*
D10*
X105400000Y-186700000D03*
D11*
X105400000Y-184160000D03*
X105400000Y-181620000D03*
X105400000Y-179080000D03*
X105400000Y-176540000D03*
X105400000Y-174000000D03*
X105400000Y-171460000D03*
X105400000Y-168920000D03*
X97780000Y-168920000D03*
X97780000Y-171460000D03*
X97780000Y-174000000D03*
X97780000Y-176540000D03*
X97780000Y-179080000D03*
X97780000Y-181620000D03*
X97780000Y-184160000D03*
X97780000Y-186700000D03*
D23*
X53715000Y-157480000D03*
D24*
X53715000Y-154940000D03*
X53715000Y-152400000D03*
D29*
X58420000Y-157480000D03*
D19*
X58420000Y-165100000D03*
D18*
X43180000Y-147320000D03*
D19*
X53340000Y-147320000D03*
D30*
X68580000Y-185420000D03*
D31*
X66040000Y-185420000D03*
X68580000Y-182880000D03*
X66040000Y-182880000D03*
X68580000Y-180340000D03*
X66040000Y-180340000D03*
X68580000Y-177800000D03*
X66040000Y-177800000D03*
X68580000Y-175260000D03*
X66040000Y-175260000D03*
X68580000Y-172720000D03*
X66040000Y-172720000D03*
X68580000Y-170180000D03*
X66040000Y-170180000D03*
X68580000Y-167640000D03*
X66040000Y-167640000D03*
X68580000Y-165100000D03*
X66040000Y-165100000D03*
X68580000Y-162560000D03*
X66040000Y-162560000D03*
X68580000Y-160020000D03*
X66040000Y-160020000D03*
X68580000Y-157480000D03*
X66040000Y-157480000D03*
X68580000Y-154940000D03*
X66040000Y-154940000D03*
X68580000Y-152400000D03*
X66040000Y-152400000D03*
X68580000Y-149860000D03*
X66040000Y-149860000D03*
X68580000Y-147320000D03*
X66040000Y-147320000D03*
X68580000Y-144780000D03*
X66040000Y-144780000D03*
D27*
X85090000Y-52070000D03*
D28*
X87630000Y-52070000D03*
X90170000Y-52070000D03*
D22*
X30000000Y-190500000D03*
D16*
X50230000Y-38100000D03*
X45630000Y-38100000D03*
D17*
X61530000Y-38100000D03*
X66130000Y-38100000D03*
D32*
X33020000Y-45720000D03*
D33*
X38100000Y-45720000D03*
D12*
X100330000Y-35560000D03*
D13*
X100330000Y-40560000D03*
D34*
X110560000Y-142235000D03*
D35*
X110560000Y-144775000D03*
X110560000Y-147315000D03*
X110560000Y-149855000D03*
X110560000Y-152395000D03*
X110560000Y-154935000D03*
X110560000Y-157475000D03*
D12*
X100330000Y-52070000D03*
D13*
X100330000Y-57070000D03*
D22*
X30000000Y-30500000D03*
D18*
X85090000Y-55880000D03*
X85090000Y-58380000D03*
X49530000Y-172720000D03*
D19*
X49530000Y-182880000D03*
D34*
X62925000Y-78740000D03*
D35*
X65465000Y-78740000D03*
X68005000Y-78740000D03*
X70545000Y-78740000D03*
X73085000Y-78740000D03*
X75625000Y-78740000D03*
X78165000Y-78740000D03*
X80705000Y-78740000D03*
X83245000Y-78740000D03*
X85785000Y-78740000D03*
X88325000Y-78740000D03*
X90865000Y-78740000D03*
X93405000Y-78740000D03*
X95945000Y-78740000D03*
D18*
X43180000Y-132180000D03*
D19*
X53340000Y-132180000D03*
D36*
X62840000Y-115570000D03*
D37*
X65380000Y-115570000D03*
X67920000Y-115570000D03*
X70460000Y-115570000D03*
X73000000Y-115570000D03*
X75540000Y-115570000D03*
X78080000Y-115570000D03*
X80620000Y-115570000D03*
X83160000Y-115570000D03*
X85700000Y-115570000D03*
X88240000Y-115570000D03*
X90780000Y-115570000D03*
X93320000Y-115570000D03*
X95860000Y-115570000D03*
X98400000Y-115570000D03*
X98400000Y-90170000D03*
X95860000Y-90170000D03*
X93320000Y-90170000D03*
X90780000Y-90170000D03*
X88240000Y-90170000D03*
X85700000Y-90170000D03*
X83160000Y-90170000D03*
X80620000Y-90170000D03*
X78080000Y-90170000D03*
X75540000Y-90170000D03*
X73000000Y-90170000D03*
X70460000Y-90170000D03*
X67920000Y-90170000D03*
X65380000Y-90170000D03*
X62840000Y-90170000D03*
D10*
X105400000Y-160030000D03*
D11*
X105400000Y-157490000D03*
X105400000Y-154950000D03*
X105400000Y-152410000D03*
X105400000Y-149870000D03*
X105400000Y-147330000D03*
X105400000Y-144790000D03*
X105400000Y-142250000D03*
X97780000Y-142250000D03*
X97780000Y-144790000D03*
X97780000Y-147330000D03*
X97780000Y-149870000D03*
X97780000Y-152410000D03*
X97780000Y-154950000D03*
X97780000Y-157490000D03*
X97780000Y-160030000D03*
D13*
X33020000Y-38100000D03*
X35560000Y-38100000D03*
D22*
X110000000Y-190500000D03*
D18*
X96560000Y-190500000D03*
X99060000Y-190500000D03*
D13*
X107950000Y-44450000D03*
X110490000Y-44450000D03*
X106680000Y-73660000D03*
X106680000Y-76200000D03*
D18*
X99735000Y-136525000D03*
X102235000Y-136525000D03*
D14*
X53340000Y-187960000D03*
D15*
X52070000Y-187960000D03*
X50800000Y-187960000D03*
D20*
X58420000Y-146050000D03*
D21*
X58420000Y-144780000D03*
X58420000Y-143510000D03*
D34*
X31690000Y-148590000D03*
D35*
X31690000Y-151130000D03*
D18*
X90170000Y-39370000D03*
X90170000Y-41870000D03*
X90170000Y-55880000D03*
X90170000Y-58380000D03*
X85090000Y-39370000D03*
X85090000Y-41870000D03*
M02*
